<?xml version="1.0" encoding="utf-8"?>
<!-- Generator: Adobe Illustrator 15.0.0, SVG Export Plug-In . SVG Version: 6.00 Build 0)  -->
<!DOCTYPE svg PUBLIC "-//W3C//DTD SVG 1.1//EN" "http://www.w3.org/Graphics/SVG/1.1/DTD/svg11.dtd">
<svg version="1.1" id="Слой_1" xmlns="http://www.w3.org/2000/svg" xmlns:xlink="http://www.w3.org/1999/xlink" x="0px" y="0px"
	 width="1100px" height="600px" viewBox="0 0 1100 600" enable-background="new 0 0 1100 600" xml:space="preserve">
<polygon fill="none" points="-30,680 1165.323,680 1165.323,-70.82 -30,-70.82 "/>
<path fill="#7E8CB7" stroke="#7E8CB7" stroke-width="1.51" d="M219.103,658.794l-219.165,6.815l117.447-8.39L219.103,658.794z"/>
<path fill="#7487B3" stroke="#7487B3" stroke-width="1.51" d="M471.823,661.415l-471.885,4.194l219.165-6.815L471.823,661.415z"/>
<path fill="#CDE2F1" stroke="#CDE2F1" stroke-width="1.51" d="M522.158-55.851l-135.274,9.962L221.2-58.472L522.158-55.851z"/>
<path fill="#BFDAEC" stroke="#BFDAEC" stroke-width="1.51" d="M701.999-68.958L522.158-55.85L221.2-58.472L701.999-68.958z"/>
<path fill="#D1E4F2" stroke="#D1E4F2" stroke-width="1.51" d="M701.999-68.958L221.2-58.472l-78.647-4.195L701.999-68.958z"/>
<path fill="#AFCFE8" stroke="#AFCFE8" stroke-width="1.51" d="M701.999-68.958l-114.825,11.01l-65.016,2.098L701.999-68.958z"/>
<path fill="#5C7DAA" stroke="#5C7DAA" stroke-width="1.51" d="M774.354,670.854l-774.417-5.244l471.885-4.194L774.354,670.854z"/>
<path fill="#3A6DA4" stroke="#3A6DA4" stroke-width="1.51" d="M774.354,670.854l-302.531-9.438l133.701-7.341L774.354,670.854z"/>
<path fill="#9BB8DD" stroke="#9BB8DD" stroke-width="1.51" d="M931.65-64.764L802.668-47.461L701.999-68.958L931.65-64.764z"/>
<path fill="#95ADD6" stroke="#95ADD6" stroke-width="1.51" d="M1107.82-68.958l-176.171,4.194l-229.65-4.194H1107.82z"/>
<path fill="#90A2CE" stroke="#90A2CE" stroke-width="1.51" d="M1107.82-68.958l-119.544,7.34l-56.627-3.146L1107.82-68.958z"/>
<path fill="#8E9ECA" stroke="#8E9ECA" stroke-width="1.51" d="M1107.82-68.958l-88.609,12.059l-30.935-4.719L1107.82-68.958z"/>
<path fill="#093F82" stroke="#093F82" stroke-width="1.51" d="M1129.317,666.658l-152.576,11.535l119.021-27.266L1129.317,666.658z"
	/>
<path fill="#093F80" stroke="#093F80" stroke-width="1.51" d="M1138.754,590.632l-9.438,76.026l-33.557-15.729L1138.754,590.632z"/>
<path fill="#2E659E" stroke="#2E659E" stroke-width="1.51" d="M1152.387,431.239l-15.206-60.296l3.671-25.168L1152.387,431.239z"/>
<path fill="#5E7EAD" stroke="#5E7EAD" stroke-width="1.51" d="M1155.008,229.902l-52.432-22.021l34.081-46.664L1155.008,229.902z"/>
<path fill="#396AA1" stroke="#396AA1" stroke-width="1.51" d="M1155.008,229.902l-2.621,201.337l-11.534-85.464L1155.008,229.902z"
	/>
<path fill="#4671A5" stroke="#4671A5" stroke-width="1.51" d="M1155.008,229.902l-14.155,115.874l3.146-62.395L1155.008,229.902z"/>
<path fill="#6C83B0" stroke="#6C83B0" stroke-width="1.51" d="M1162.349,117.698l-25.69,43.519l-26.218-34.081L1162.349,117.698z"/>
<path fill="#7285B2" stroke="#7285B2" stroke-width="1.51" d="M1162.349,117.698l-51.907,9.438l26.217-63.442L1162.349,117.698z"/>
<path fill="#647EAB" stroke="#647EAB" stroke-width="1.51" d="M1162.349,117.698l-7.341,112.204l-18.351-68.686L1162.349,117.698z"
	/>
<path fill="#094488" stroke="#094488" stroke-width="1.51" d="M1162.873,515.13l-33.556,151.528l9.438-76.026L1162.873,515.13z"/>
<path fill="#18579A" stroke="#18579A" stroke-width="1.51" d="M1162.873,515.13l-83.366-4.718l25.691-62.395L1162.873,515.13z"/>
<path fill="#0F4A8D" stroke="#0F4A8D" stroke-width="1.51" d="M1162.873,515.13l-24.118,75.502l3.671-42.993L1162.873,515.13z"/>
<path fill="#1E5898" stroke="#1E5898" stroke-width="1.51" d="M1162.873,515.13l-57.675-67.11l47.188-16.779L1162.873,515.13z"/>
<path fill="#4570A3" stroke="#4570A3" stroke-width="1.51" d="M1162.873,515.13l-7.864-285.228l7.341-112.204L1162.873,515.13z"/>
<path fill="#2B629B" stroke="#2B629B" stroke-width="1.51" d="M1162.873,515.13l-10.485-83.891l2.621-201.337L1162.873,515.13z"/>
<path fill="#8390B9" stroke="#8390B9" stroke-width="1.51" d="M1163.397-11.808l-82.317,3.146l55.578-56.102L1163.397-11.808z"/>
<path fill="#7F8EB9" stroke="#7F8EB9" stroke-width="1.51" d="M1163.397-11.808l-51.384,50.334l-30.935-47.188L1163.397-11.808z"/>
<path fill="#7B8AB5" stroke="#7B8AB5" stroke-width="1.51" d="M1163.397-11.808l-26.739,75.501l-24.645-25.167L1163.397-11.808z"/>
<path fill="#7786B1" stroke="#7786B1" stroke-width="1.51" d="M1163.397-11.808l-1.049,129.506l-25.69-54.005L1163.397-11.808z"/>
<path fill="#4E76A9" stroke="#4E76A9" stroke-width="1.51" d="M1155.008,229.902l-11.011,53.479l-47.713-15.205L1155.008,229.902z"
	/>
<path fill="#135094" stroke="#135094" stroke-width="1.51" d="M1162.873,515.13l-20.447,32.509l-62.919-37.227L1162.873,515.13z"/>
<path fill="#6883B1" stroke="#6883B1" stroke-width="1.51" d="M471.823,661.415l-252.721-2.621l105.912-8.39L471.823,661.415z"/>
<path fill="#8794BD" stroke="#8794BD" stroke-width="1.51" d="M1136.658-64.764L1081.08-8.662l26.74-60.296L1136.658-64.764z"/>
<path fill="#2B67A2" stroke="#2B67A2" stroke-width="1.51" d="M1137.181,370.943l-31.982,77.074l-19.399-76.026L1137.181,370.943z"
	/>
<path fill="#3D6FA7" stroke="#3D6FA7" stroke-width="1.51" d="M1143.998,283.382l-3.146,62.396l-57.676-2.623L1143.998,283.382z"/>
<path fill="#27619D" stroke="#27619D" stroke-width="1.51" d="M1152.387,431.239l-47.188,16.778l31.982-77.074L1152.387,431.239z"/>
<path fill="#567CAD" stroke="#567CAD" stroke-width="1.51" d="M1155.008,229.902l-58.724,38.274l6.292-60.296L1155.008,229.902z"/>
<path fill="#094489" stroke="#094489" stroke-width="1.51" d="M1138.754,590.632l-42.993,60.298l-1.572-58.725L1138.754,590.632z"/>
<path fill="#4374AB" stroke="#4374AB" stroke-width="1.51" d="M1143.998,283.382l-60.82,59.772l13.107-74.979L1143.998,283.382z"/>
<path fill="#0C488D" stroke="#0C488D" stroke-width="1.51" d="M1142.425,547.639l-3.671,42.993l-44.565,1.573L1142.425,547.639z"/>
<path fill="#0D4C91" stroke="#0D4C91" stroke-width="1.51" d="M1142.425,547.639l-48.236,44.566l-12.584-24.645L1142.425,547.639z"
	/>
<path fill="#115196" stroke="#115196" stroke-width="1.51" d="M1142.425,547.639l-60.82,19.924l-2.099-57.149L1142.425,547.639z"/>
<path fill="#09458A" stroke="#09458A" stroke-width="1.51" d="M1095.761,650.93l-119.02,27.264l40.896-32.508L1095.761,650.93z"/>
<path fill="#758AB9" stroke="#758AB9" stroke-width="1.51" d="M1136.658,63.693l-26.218,63.442l-59.246-25.69L1136.658,63.693z"/>
<path fill="#6583B2" stroke="#6583B2" stroke-width="1.51" d="M1136.658,161.217l-34.081,46.664l-13.632-54.005L1136.658,161.217z"
	/>
<path fill="#346DA6" stroke="#346DA6" stroke-width="1.51" d="M1137.181,370.943l-51.383,1.048l-2.621-28.837L1137.181,370.943z"/>
<path fill="#366CA4" stroke="#366CA4" stroke-width="1.51" d="M1140.853,345.775l-3.672,25.168l-54.004-27.789L1140.853,345.775z"/>
<path fill="#798CBA" stroke="#798CBA" stroke-width="1.51" d="M1136.658,63.693l-85.464,37.751l60.819-62.918L1136.658,63.693z"/>
<path fill="#6B85B4" stroke="#6B85B4" stroke-width="1.51" d="M1136.658,161.217l-47.713-7.341l21.495-26.74L1136.658,161.217z"/>
<path fill="#96B1D9" stroke="#96B1D9" stroke-width="1.51" d="M931.65-64.764l-56.104,14.681l-72.88,2.622L931.65-64.764z"/>
<path fill="#4679B1" stroke="#4679B1" stroke-width="1.51" d="M1096.285,268.177l-13.107,74.979l-49.811-68.161L1096.285,268.177z"
	/>
<path fill="#1B5EA2" stroke="#1B5EA2" stroke-width="1.51" d="M1105.198,448.02l-25.691,62.394l-45.615-32.508L1105.198,448.02z"/>
<path fill="#2767A6" stroke="#2767A6" stroke-width="1.51" d="M1105.198,448.02l-69.209,2.097l49.81-78.124L1105.198,448.02z"/>
<path fill="#7F92BF" stroke="#7F92BF" stroke-width="1.51" d="M1112.014,38.526l-67.111,5.768l36.178-52.956L1112.014,38.526z"/>
<path fill="#7B91BF" stroke="#7B91BF" stroke-width="1.51" d="M1112.014,38.526l-60.819,62.918l-6.292-57.15L1112.014,38.526z"/>
<path fill="#5A81B5" stroke="#5A81B5" stroke-width="1.51" d="M1102.577,207.881l-6.292,60.296l-65.539-61.869L1102.577,207.881z"/>
<path fill="#8999C4" stroke="#8999C4" stroke-width="1.51" d="M1107.82-68.958l-26.74,60.296l-61.869-48.237L1107.82-68.958z"/>
<path fill="#708ABA" stroke="#708ABA" stroke-width="1.51" d="M1110.441,127.136l-21.496,26.74l-37.751-52.432L1110.441,127.136z"/>
<path fill="#2B6DAC" stroke="#2B6DAC" stroke-width="1.51" d="M1085.798,371.991l-49.81,78.124l-15.205-59.772L1085.798,371.991z"/>
<path fill="#2063A6" stroke="#2063A6" stroke-width="1.51" d="M1105.198,448.02l-71.308,29.886l2.099-27.789L1105.198,448.02z"/>
<path fill="#09488F" stroke="#09488F" stroke-width="1.51" d="M1095.761,650.93l-73.404-56.104l71.832-2.621L1095.761,650.93z"/>
<path fill="#5481B7" stroke="#5481B7" stroke-width="1.51" d="M1096.285,268.177l-62.918,6.816l-2.621-68.686L1096.285,268.177z"/>
<path fill="#6386B7" stroke="#6386B7" stroke-width="1.51" d="M1102.577,207.881l-71.831-1.573l58.199-52.432L1102.577,207.881z"/>
<path fill="#09488E" stroke="#09488E" stroke-width="1.51" d="M1095.761,650.93l-78.124-5.244l4.72-50.858L1095.761,650.93z"/>
<path fill="#11549B" stroke="#11549B" stroke-width="1.51" d="M1081.604,567.563l-46.142-7.864l44.043-49.285L1081.604,567.563z"/>
<path fill="#4079B3" stroke="#4079B3" stroke-width="1.51" d="M1083.177,343.154l-57.149-2.098l7.34-66.063L1083.177,343.154z"/>
<path fill="#718CBE" stroke="#718CBE" stroke-width="1.51" d="M1088.945,153.876l-53.481-4.719l15.73-47.713L1088.945,153.876z"/>
<path fill="#698BBC" stroke="#698BBC" stroke-width="1.51" d="M1088.945,153.876l-58.199,52.432l4.718-57.15L1088.945,153.876z"/>
<path fill="#899BC8" stroke="#899BC8" stroke-width="1.51" d="M1081.08-8.662l-59.772-7.34l-2.097-40.897L1081.08-8.662z"/>
<path fill="#0A4D96" stroke="#0A4D96" stroke-width="1.51" d="M1094.188,592.205l-71.832,2.621l59.248-27.266L1094.188,592.205z"/>
<path fill="#155394" stroke="#155394" stroke-width="1.51" d="M976.741,678.193l-202.387-7.34l113.252-20.448L976.741,678.193z"/>
<path fill="#0C519B" stroke="#0C519B" stroke-width="1.51" d="M1081.604,567.563l-59.248,27.265l13.106-35.129L1081.604,567.563z"/>
<path fill="#3873AE" stroke="#3873AE" stroke-width="1.51" d="M1085.798,371.991l-59.771-30.935l57.149,2.098L1085.798,371.991z"/>
<path fill="#3572B0" stroke="#3572B0" stroke-width="1.51" d="M1085.798,371.991l-65.015,18.352l5.243-49.286L1085.798,371.991z"/>
<path fill="#8497C6" stroke="#8497C6" stroke-width="1.51" d="M1081.08-8.662l-36.178,52.956l-23.596-60.296L1081.08-8.662z"/>
<path fill="#145AA2" stroke="#145AA2" stroke-width="1.51" d="M1079.506,510.412l-44.043,49.285l-1.572-81.793L1079.506,510.412z"/>
<path fill="#437EB9" stroke="#437EB9" stroke-width="1.51" d="M1033.367,274.993l-7.34,66.063l-25.692-23.596L1033.367,274.993z"/>
<path fill="#145CA5" stroke="#145CA5" stroke-width="1.51" d="M1035.463,559.697l-36.702-28.838l35.13-52.955L1035.463,559.697z"/>
<path fill="#859BCA" stroke="#859BCA" stroke-width="1.51" d="M1044.902,44.294L982.508,8.64l38.799-24.643L1044.902,44.294z"/>
<path fill="#7793C5" stroke="#7793C5" stroke-width="1.51" d="M1051.194,101.444l-15.73,47.713l-69.732-46.664L1051.194,101.444z"/>
<path fill="#7C97C8" stroke="#7C97C8" stroke-width="1.51" d="M1051.194,101.444l-85.465,1.049l19.399-41.421L1051.194,101.444z"/>
<path fill="#7D95C6" stroke="#7D95C6" stroke-width="1.51" d="M1051.194,101.444L985.13,61.071l59.772-16.778L1051.194,101.444z"/>
<path fill="#5C89BE" stroke="#5C89BE" stroke-width="1.51" d="M1033.367,274.993l-58.199-65.016l55.578-3.67L1033.367,274.993z"/>
<path fill="#5688BE" stroke="#5688BE" stroke-width="1.51" d="M1033.367,274.993l-51.384,5.243l-6.815-70.259L1033.367,274.993z"/>
<path fill="#6A8FC1" stroke="#6A8FC1" stroke-width="1.51" d="M1035.463,149.157l-4.718,57.15L969.4,174.849L1035.463,149.157z"/>
<path fill="#286EAF" stroke="#286EAF" stroke-width="1.51" d="M1035.989,450.115l-63.967-12.061l48.762-47.713L1035.989,450.115z"/>
<path fill="#829ACA" stroke="#829ACA" stroke-width="1.51" d="M1044.902,44.294L985.13,61.072L982.509,8.64L1044.902,44.294z"/>
<path fill="#2C73B3" stroke="#2C73B3" stroke-width="1.51" d="M1020.784,390.343l-48.762,47.714l18.351-51.384L1020.784,390.343z"/>
<path fill="#3576B4" stroke="#3576B4" stroke-width="1.51" d="M1026.027,341.057l-5.243,49.286l-30.411-3.67L1026.027,341.057z"/>
<path fill="#6690C2" stroke="#6690C2" stroke-width="1.51" d="M1030.746,206.308l-55.578,3.67l-5.769-35.129L1030.746,206.308z"/>
<path fill="#4A82BB" stroke="#4A82BB" stroke-width="1.51" d="M1033.367,274.993l-33.032,42.469l-18.352-37.226L1033.367,274.993z"
	/>
<path fill="#1863AA" stroke="#1863AA" stroke-width="1.51" d="M1033.891,477.904l-35.13,52.955l-35.652-42.469L1033.891,477.904z"/>
<path fill="#0E56A0" stroke="#0E56A0" stroke-width="1.51" d="M1035.463,559.697l-13.106,35.129l-23.596-63.967L1035.463,559.697z"
	/>
<path fill="#7394C6" stroke="#7394C6" stroke-width="1.51" d="M1035.463,149.157L969.4,174.849l-3.671-72.355L1035.463,149.157z"/>
<path fill="#2269AD" stroke="#2269AD" stroke-width="1.51" d="M1035.989,450.115l-2.099,27.789l-61.868-39.85L1035.989,450.115z"/>
<path fill="#2069AE" stroke="#2069AE" stroke-width="1.51" d="M1033.891,477.904l-70.782,10.486l8.914-50.336L1033.891,477.904z"/>
<path fill="#0B4F98" stroke="#0B4F98" stroke-width="1.51" d="M1022.356,594.826l-4.72,50.859l-50.857-42.994L1022.356,594.826z"/>
<path fill="#0F56A0" stroke="#0F56A0" stroke-width="1.51" d="M1022.356,594.826l-55.577,7.865l31.981-71.832L1022.356,594.826z"/>
<path fill="#8DA0CD" stroke="#8DA0CD" stroke-width="1.51" d="M1021.307-16.002l-33.03-45.616l30.935,4.719L1021.307-16.002z"/>
<path fill="#3B7AB7" stroke="#3B7AB7" stroke-width="1.51" d="M1026.027,341.057l-35.654,45.616l9.962-69.211L1026.027,341.057z"/>
<path fill="#1D599A" stroke="#1D599A" stroke-width="1.51" d="M887.606,650.404l-113.252,20.449l51.906-19.924L887.606,650.404z"/>
<path fill="#8BA0CD" stroke="#8BA0CD" stroke-width="1.51" d="M1021.307-16.002L982.508,8.641l5.769-70.258L1021.307-16.002z"/>
<path fill="#9EBFE0" stroke="#9EBFE0" stroke-width="1.51" d="M802.667-47.461l-31.982-1.573l-68.687-19.924L802.667-47.461z"/>
<path fill="#3A7BB8" stroke="#3A7BB8" stroke-width="1.51" d="M1000.334,317.462l-9.962,69.211l-44.043-20.448L1000.334,317.462z"/>
<path fill="#3F80BB" stroke="#3F80BB" stroke-width="1.51" d="M1000.334,317.462l-54.005,48.763l-1.572-29.887L1000.334,317.462z"/>
<path fill="#0D4C92" stroke="#0D4C92" stroke-width="1.51" d="M1017.637,645.686l-40.896,32.508l-9.962-75.502L1017.637,645.686z"/>
<path fill="#0F4F95" stroke="#0F4F95" stroke-width="1.51" d="M976.741,678.193l-42.471-35.131l32.509-40.371L976.741,678.193z"/>
<path fill="#588BC1" stroke="#588BC1" stroke-width="1.51" d="M981.984,280.236l-46.141-10.486l39.323-59.772L981.984,280.236z"/>
<path fill="#8BA2CF" stroke="#8BA2CF" stroke-width="1.51" d="M988.276-61.618L982.508,8.64l-40.896-4.194L988.276-61.618z"/>
<path fill="#1259A3" stroke="#1259A3" stroke-width="1.51" d="M998.761,530.859l-31.981,71.832l-24.119-15.729L998.761,530.859z"/>
<path fill="#155EA6" stroke="#155EA6" stroke-width="1.51" d="M998.761,530.859l-56.101,56.103l-10.486-49.81L998.761,530.859z"/>
<path fill="#4582BC" stroke="#4582BC" stroke-width="1.51" d="M1000.334,317.462l-55.577,18.876l37.227-56.102L1000.334,317.462z"/>
<path fill="#90A6D2" stroke="#90A6D2" stroke-width="1.51" d="M988.276-61.618L941.612,4.446l-9.962-69.21L988.276-61.618z"/>
<path fill="#1963AA" stroke="#1963AA" stroke-width="1.51" d="M998.761,530.859l-66.588,6.293l30.936-48.762L998.761,530.859z"/>
<path fill="#7598C9" stroke="#7598C9" stroke-width="1.51" d="M969.4,174.849l-52.956-23.07l49.285-49.286L969.4,174.849z"/>
<path fill="#849ECD" stroke="#849ECD" stroke-width="1.51" d="M985.129,61.072l-45.615-13.107l42.994-39.324L985.129,61.072z"/>
<path fill="#2C73B4" stroke="#2C73B4" stroke-width="1.51" d="M990.373,386.673l-18.351,51.384l-24.644-6.816L990.373,386.673z"/>
<path fill="#3078B6" stroke="#3078B6" stroke-width="1.51" d="M990.373,386.673l-42.993,44.566l-1.05-65.017L990.373,386.673z"/>
<path fill="#4B87BF" stroke="#4B87BF" stroke-width="1.51" d="M981.984,280.236l-37.228,56.102l-8.913-66.588L981.984,280.236z"/>
<path fill="#87A1CE" stroke="#87A1CE" stroke-width="1.51" d="M982.508,8.64l-42.994,39.324l2.099-43.519L982.508,8.64z"/>
<path fill="#809DCC" stroke="#809DCC" stroke-width="1.51" d="M985.129,61.072l-19.399,41.421l-26.216-54.529L985.129,61.072z"/>
<path fill="#7A9CCC" stroke="#7A9CCC" stroke-width="1.51" d="M965.729,102.493l-49.285,49.286l17.303-51.383L965.729,102.493z"/>
<path fill="#6091C4" stroke="#6091C4" stroke-width="1.51" d="M975.167,209.978l-39.323,59.772l-19.924-61.869L975.167,209.978z"/>
<path fill="#256FB1" stroke="#256FB1" stroke-width="1.51" d="M972.022,438.057l-8.914,50.334l-15.729-57.15L972.022,438.057z"/>
<path fill="#124F93" stroke="#124F93" stroke-width="1.51" d="M976.741,678.193l-89.134-27.789l46.663-7.342L976.741,678.193z"/>
<path fill="#1C67AE" stroke="#1C67AE" stroke-width="1.51" d="M963.108,488.391l-30.936,48.762l-4.719-43.52L963.108,488.391z"/>
<path fill="#809DCD" stroke="#809DCD" stroke-width="1.51" d="M965.729,102.493l-31.982-2.097l5.768-52.432L965.729,102.493z"/>
<path fill="#6894C5" stroke="#6894C5" stroke-width="1.51" d="M975.167,209.978l-59.247-2.097l53.479-33.032L975.167,209.978z"/>
<path fill="#226DB1" stroke="#226DB1" stroke-width="1.51" d="M963.108,488.391l-35.653,5.242l19.925-62.394L963.108,488.391z"/>
<path fill="#10559D" stroke="#10559D" stroke-width="1.51" d="M966.779,602.691l-32.509,40.371l8.39-56.102L966.779,602.691z"/>
<path fill="#6D97C8" stroke="#6D97C8" stroke-width="1.51" d="M969.4,174.849l-53.479,33.032l0.523-56.102L969.4,174.849z"/>
<path fill="#82A2D0" stroke="#82A2D0" stroke-width="1.51" d="M939.514,47.964l-5.768,52.432l-57.675-24.643L939.514,47.964z"/>
<path fill="#91AAD5" stroke="#91AAD5" stroke-width="1.51" d="M941.612,4.446l-66.064-54.529l56.104-14.681L941.612,4.446z"/>
<path fill="#90ACD6" stroke="#90ACD6" stroke-width="1.51" d="M941.612,4.446l-72.356-20.448l6.292-34.081L941.612,4.446z"/>
<path fill="#1459A1" stroke="#1459A1" stroke-width="1.51" d="M942.66,586.962l-8.39,56.103l-65.016-48.237L942.66,586.962z"/>
<path fill="#1760A8" stroke="#1760A8" stroke-width="1.51" d="M942.66,586.962l-56.626-18.353l46.14-31.457L942.66,586.962z"/>
<path fill="#4D8CC2" stroke="#4D8CC2" stroke-width="1.51" d="M944.757,336.338L862.44,273.42l73.403-3.67L944.757,336.338z"/>
<path fill="#478BC3" stroke="#478BC3" stroke-width="1.51" d="M944.757,336.338l-89.135,11.536l6.816-74.454L944.757,336.338z"/>
<path fill="#327EBC" stroke="#327EBC" stroke-width="1.51" d="M946.33,366.225l-55.053,74.978l-32.509-44.566L946.33,366.225z"/>
<path fill="#3F83BE" stroke="#3F83BE" stroke-width="1.51" d="M946.33,366.225l-90.707-18.351l89.135-11.536L946.33,366.225z"/>
<path fill="#2E79B8" stroke="#2E79B8" stroke-width="1.51" d="M947.379,431.239l-56.103,9.962l55.053-74.979L947.379,431.239z"/>
<path fill="#2772B4" stroke="#2772B4" stroke-width="1.51" d="M947.379,431.239l-19.925,62.394l-36.178-52.432L947.379,431.239z"/>
<path fill="#15589D" stroke="#15589D" stroke-width="1.51" d="M934.271,643.063l-46.664,7.342l-18.352-55.578L934.271,643.063z"/>
<path fill="#3B84BF" stroke="#3B84BF" stroke-width="1.51" d="M946.33,366.225l-87.562,30.41l-3.146-48.761L946.33,366.225z"/>
<path fill="#8BA7D3" stroke="#8BA7D3" stroke-width="1.51" d="M941.612,4.446l-2.099,43.519l-70.259-63.967L941.612,4.446z"/>
<path fill="#165FA7" stroke="#165FA7" stroke-width="1.51" d="M942.66,586.962l-73.404,7.864l16.778-26.217L942.66,586.962z"/>
<path fill="#88A7D3" stroke="#88A7D3" stroke-width="1.51" d="M939.514,47.964l-63.441,27.789l-6.816-91.755L939.514,47.964z"/>
<path fill="#5B92C6" stroke="#5B92C6" stroke-width="1.51" d="M935.844,269.75l-73.403,3.67l53.479-65.539L935.844,269.75z"/>
<path fill="#7BA0CF" stroke="#7BA0CF" stroke-width="1.51" d="M933.747,100.396l-17.303,51.383l-60.821-36.178L933.747,100.396z"/>
<path fill="#1E6BB1" stroke="#1E6BB1" stroke-width="1.51" d="M932.173,537.152l-76.551-43.521h71.832L932.173,537.152z"/>
<path fill="#80A3D1" stroke="#80A3D1" stroke-width="1.51" d="M933.747,100.396l-78.124,15.205l20.449-39.848L933.747,100.396z"/>
<path fill="#1C68AE" stroke="#1C68AE" stroke-width="1.51" d="M932.173,537.152l-46.14,31.457l-30.411-74.978L932.173,537.152z"/>
<path fill="#6298C9" stroke="#6298C9" stroke-width="1.51" d="M915.92,207.881L862.44,273.42l8.389-68.161L915.92,207.881z"/>
<path fill="#6F9BCB" stroke="#6F9BCB" stroke-width="1.51" d="M916.444,151.779l-0.523,56.102l-50.859-31.459L916.444,151.779z"/>
<path fill="#2472B5" stroke="#2472B5" stroke-width="1.51" d="M927.455,493.633h-71.832l35.654-52.432L927.455,493.633z"/>
<path fill="#8CACD6" stroke="#8CACD6" stroke-width="1.51" d="M876.072,75.753l-42.47-55.054l35.652-36.702L876.072,75.753z"/>
<path fill="#6B9CCB" stroke="#6B9CCB" stroke-width="1.51" d="M915.92,207.881l-45.092-2.622l-5.769-28.837L915.92,207.881z"/>
<path fill="#77A0CF" stroke="#77A0CF" stroke-width="1.51" d="M916.444,151.779l-51.383,24.643l-9.438-60.821L916.444,151.779z"/>
<path fill="#4875A9" stroke="#4875A9" stroke-width="1.51" d="M605.524,654.074l-133.701,7.341l57.149-9.438L605.524,654.074z"/>
<path fill="#2F67A1" stroke="#2F67A1" stroke-width="1.51" d="M774.354,670.854l-168.83-16.778l92.805-6.815L774.354,670.854z"/>
<path fill="#649BCB" stroke="#649BCB" stroke-width="1.51" d="M870.829,205.259l-8.389,68.161l-28.313-65.015L870.829,205.259z"/>
<path fill="#206CB0" stroke="#206CB0" stroke-width="1.51" d="M886.034,568.609l-76.025-5.242l45.614-69.734L886.034,568.609z"/>
<path fill="#195DA2" stroke="#195DA2" stroke-width="1.51" d="M887.606,650.404l-55.577-40.896l37.227-14.682L887.606,650.404z"/>
<path fill="#1B5B9E" stroke="#1B5B9E" stroke-width="1.51" d="M887.606,650.404l-61.346,0.523l5.769-41.421L887.606,650.404z"/>
<path fill="#317EBC" stroke="#317EBC" stroke-width="1.51" d="M891.277,441.201l-85.988,8.39l53.479-52.956L891.277,441.201z"/>
<path fill="#2B79B9" stroke="#2B79B9" stroke-width="1.51" d="M891.277,441.201l-35.654,52.432l-50.334-44.042L891.277,441.201z"/>
<path fill="#2572B4" stroke="#2572B4" stroke-width="1.51" d="M855.623,493.633l-45.614,69.734l22.546-70.258L855.623,493.633z"/>
<path fill="#89ACD6" stroke="#89ACD6" stroke-width="1.51" d="M876.072,75.753L819.97,65.267L833.603,20.7L876.072,75.753z"/>
<path fill="#1C65AB" stroke="#1C65AB" stroke-width="1.51" d="M886.034,568.609l-16.778,26.217l-59.247-31.459L886.034,568.609z"/>
<path fill="#2A78B9" stroke="#2A78B9" stroke-width="1.51" d="M855.623,493.633l-23.068-0.523l-27.266-43.519L855.623,493.633z"/>
<path fill="#4E93C8" stroke="#4E93C8" stroke-width="1.51" d="M855.623,347.874l-57.149-36.703l31.982-40.372L855.623,347.874z"/>
<path fill="#4F92C8" stroke="#4F92C8" stroke-width="1.51" d="M862.44,273.42l-6.817,74.454l-25.167-77.075L862.44,273.42z"/>
<path fill="#5F99CA" stroke="#5F99CA" stroke-width="1.51" d="M862.44,273.42l-31.984-2.621l3.671-62.394L862.44,273.42z"/>
<path fill="#7BA4D1" stroke="#7BA4D1" stroke-width="1.51" d="M865.062,176.422l-30.936-57.151l21.496-3.67L865.062,176.422z"/>
<path fill="#96B3DA" stroke="#96B3DA" stroke-width="1.51" d="M875.547-50.083l-6.292,34.081l-66.588-31.459L875.547-50.083z"/>
<path fill="#84A9D4" stroke="#84A9D4" stroke-width="1.51" d="M876.072,75.753l-20.449,39.848l-35.652-50.334L876.072,75.753z"/>
<path fill="#C2DCED" stroke="#C2DCED" stroke-width="1.51" d="M522.158-55.851L437.743-44.84l-50.859-1.049L522.158-55.851z"/>
<path fill="#84A9D5" stroke="#84A9D5" stroke-width="1.51" d="M855.623,115.601l-21.496,3.67l-14.156-54.004L855.623,115.601z"/>
<path fill="#78A5D1" stroke="#78A5D1" stroke-width="1.51" d="M865.062,176.422l-52.433-3.67l21.497-53.48L865.062,176.422z"/>
<path fill="#1D65AB" stroke="#1D65AB" stroke-width="1.51" d="M869.255,594.826l-37.227,14.682l-22.021-46.141L869.255,594.826z"/>
<path fill="#6D9FCD" stroke="#6D9FCD" stroke-width="1.51" d="M870.829,205.259l-36.702,3.146l30.935-31.983L870.829,205.259z"/>
<path fill="#93B2D9" stroke="#93B2D9" stroke-width="1.51" d="M869.255-16.002L833.603,20.7l-30.936-68.161L869.255-16.002z"/>
<path fill="#3C88C1" stroke="#3C88C1" stroke-width="1.51" d="M858.769,396.635l-61.345,0.524l58.198-49.285L858.769,396.635z"/>
<path fill="#3684BF" stroke="#3684BF" stroke-width="1.51" d="M858.769,396.635l-53.479,52.956l-7.864-52.432L858.769,396.635z"/>
<path fill="#71A2CF" stroke="#71A2CF" stroke-width="1.51" d="M865.062,176.422l-30.936,31.983l-21.497-35.654L865.062,176.422z"/>
<path fill="#4890C6" stroke="#4890C6" stroke-width="1.51" d="M855.623,347.874l-80.744,26.215l23.595-62.918L855.623,347.874z"/>
<path fill="#418CC3" stroke="#418CC3" stroke-width="1.51" d="M855.623,347.874l-58.198,49.285l-22.546-23.07L855.623,347.874z"/>
<path fill="#2161A4" stroke="#2161A4" stroke-width="1.51" d="M832.029,609.508l-5.769,41.422l-54.527-40.897L832.029,609.508z"/>
<path fill="#2268AC" stroke="#2268AC" stroke-width="1.51" d="M832.029,609.508l-60.296,0.523l38.274-46.664L832.029,609.508z"/>
<path fill="#2772B3" stroke="#2772B3" stroke-width="1.51" d="M832.554,493.109l-22.546,70.258l-29.362-20.973L832.554,493.109z"/>
<path fill="#94B5DB" stroke="#94B5DB" stroke-width="1.51" d="M833.603,20.699l-55.578-5.768l24.644-62.394L833.603,20.699z"/>
<path fill="#8DB0D9" stroke="#8DB0D9" stroke-width="1.51" d="M833.603,20.699L819.97,65.266l-37.752-23.594L833.603,20.699z"/>
<path fill="#69A3CF" stroke="#69A3CF" stroke-width="1.51" d="M834.126,208.405l-54.005,48.761l-22.545-37.227L834.126,208.405z"/>
<path fill="#73A6D1" stroke="#73A6D1" stroke-width="1.51" d="M834.126,208.405l-65.54-28.837l44.043-6.816L834.126,208.405z"/>
<path fill="#71A7D1" stroke="#71A7D1" stroke-width="1.51" d="M834.126,208.405l-76.55,11.534l11.01-40.372L834.126,208.405z"/>
<path fill="#639DCC" stroke="#639DCC" stroke-width="1.51" d="M834.126,208.405l-3.671,62.394l-50.334-13.633L834.126,208.405z"/>
<path fill="#86ADD7" stroke="#86ADD7" stroke-width="1.51" d="M834.126,119.271l-80.221,1.573l66.063-55.578L834.126,119.271z"/>
<path fill="#7FAAD4" stroke="#7FAAD4" stroke-width="1.51" d="M834.126,119.271l-21.497,53.48l-58.724-51.907L834.126,119.271z"/>
<path fill="#90B3DA" stroke="#90B3DA" stroke-width="1.51" d="M833.603,20.699l-51.385,20.973l-4.193-26.74L833.603,20.699z"/>
<path fill="#2E7CBB" stroke="#2E7CBB" stroke-width="1.51" d="M832.554,493.109l-87.562,3.146l60.296-46.665L832.554,493.109z"/>
<path fill="#2B78B8" stroke="#2B78B8" stroke-width="1.51" d="M832.554,493.109l-51.908,49.285l-35.652-46.14L832.554,493.109z"/>
<path fill="#599ACB" stroke="#599ACB" stroke-width="1.51" d="M830.456,270.799l-31.982,40.372l-18.352-54.005L830.456,270.799z"/>
<path fill="#356CA5" stroke="#356CA5" stroke-width="1.51" d="M698.329,647.259l-92.805,6.815l53.479-10.486L698.329,647.259z"/>
<path fill="#3785C0" stroke="#3785C0" stroke-width="1.51" d="M805.289,449.591l-25.691-14.155l17.827-38.275L805.289,449.591z"/>
<path fill="#23609F" stroke="#23609F" stroke-width="1.51" d="M826.261,650.93l-51.906,19.924l-2.621-60.821L826.261,650.93z"/>
<path fill="#7CABD4" stroke="#7CABD4" stroke-width="1.51" d="M812.629,172.751l-44.043,6.816l-14.681-58.724L812.629,172.751z"/>
<path fill="#8BB1D9" stroke="#8BB1D9" stroke-width="1.51" d="M819.97,65.267l-66.063,55.578l28.313-79.172L819.97,65.267z"/>
<path fill="#4C95C9" stroke="#4C95C9" stroke-width="1.51" d="M798.473,311.171l-23.595,62.918l-15.729-61.345L798.473,311.171z"/>
<path fill="#99B9DD" stroke="#99B9DD" stroke-width="1.51" d="M802.667-47.461l-24.645,62.394l-7.34-63.967L802.667-47.461z"/>
<path fill="#3481BD" stroke="#3481BD" stroke-width="1.51" d="M805.289,449.591l-60.296,46.665l34.604-60.82L805.289,449.591z"/>
<path fill="#256DB0" stroke="#256DB0" stroke-width="1.51" d="M810.008,563.367l-38.274,46.664l8.912-67.637L810.008,563.367z"/>
<path fill="#579BCB" stroke="#579BCB" stroke-width="1.51" d="M798.473,311.171l-39.322,1.573l20.972-55.578L798.473,311.171z"/>
<path fill="#8CB4DA" stroke="#8CB4DA" stroke-width="1.51" d="M782.218,41.672l-28.313,79.172L716.68,93.58L782.218,41.672z"/>
<path fill="#3C8AC3" stroke="#3C8AC3" stroke-width="1.51" d="M797.424,397.159l-17.827,38.274l-4.719-61.346L797.424,397.159z"/>
<path fill="#2764A2" stroke="#2764A2" stroke-width="1.51" d="M774.354,670.854l-76.025-23.595l73.404-37.228L774.354,670.854z"/>
<path fill="#98BBDE" stroke="#98BBDE" stroke-width="1.51" d="M778.024,14.933l-72.355,2.621l65.016-66.588L778.024,14.933z"/>
<path fill="#3481BE" stroke="#3481BE" stroke-width="1.51" d="M779.597,435.436l-34.604,60.82l-17.827-6.293L779.597,435.436z"/>
<path fill="#4190C5" stroke="#4190C5" stroke-width="1.51" d="M779.597,435.436l-89.656-65.017l84.938,3.67L779.597,435.436z"/>
<path fill="#408FC5" stroke="#408FC5" stroke-width="1.51" d="M779.597,435.436l-92.278,12.059l2.622-77.074L779.597,435.436z"/>
<path fill="#5B9FCE" stroke="#5B9FCE" stroke-width="1.51" d="M780.122,257.166l-20.972,55.578l-52.957-19.4L780.122,257.166z"/>
<path fill="#63A4D0" stroke="#63A4D0" stroke-width="1.51" d="M780.122,257.166l-73.929,36.178l16.777-58.199L780.122,257.166z"/>
<path fill="#2B72B2" stroke="#2B72B2" stroke-width="1.51" d="M780.646,542.395l-8.912,67.638l-81.793-49.285L780.646,542.395z"/>
<path fill="#8FB8DB" stroke="#8FB8DB" stroke-width="1.51" d="M782.218,41.672L716.68,93.58l-6.816-20.448L782.218,41.672z"/>
<path fill="#93B8DC" stroke="#93B8DC" stroke-width="1.51" d="M782.218,41.672l-76.55-24.119l72.354-2.621L782.218,41.672z"/>
<path fill="#93B9DD" stroke="#93B9DD" stroke-width="1.51" d="M782.218,41.672l-72.354,31.459l-4.194-55.578L782.218,41.672z"/>
<path fill="#69A6D0" stroke="#69A6D0" stroke-width="1.51" d="M780.122,257.166l-57.15-22.021l34.605-15.205L780.122,257.166z"/>
<path fill="#2F79B7" stroke="#2F79B7" stroke-width="1.51" d="M780.646,542.395l-90.705,18.353l55.053-64.49L780.646,542.395z"/>
<path fill="#4B97C9" stroke="#4B97C9" stroke-width="1.51" d="M774.878,374.089l-84.938-3.67l69.21-57.675L774.878,374.089z"/>
<path fill="#3887C1" stroke="#3887C1" stroke-width="1.51" d="M779.597,435.436l-52.432,54.527l-39.848-42.47L779.597,435.436z"/>
<path fill="#529BCC" stroke="#529BCC" stroke-width="1.51" d="M759.15,312.744l-69.21,57.675l3.67-45.092L759.15,312.744z"/>
<path fill="#7EAFD6" stroke="#7EAFD6" stroke-width="1.51" d="M768.586,179.568l-59.771-10.486l45.091-48.237L768.586,179.568z"/>
<path fill="#9DC1E0" stroke="#9DC1E0" stroke-width="1.51" d="M770.685-49.035l-65.017,66.588l-3.67-86.512L770.685-49.035z"/>
<path fill="#2D71B0" stroke="#2D71B0" stroke-width="1.51" d="M771.733,610.031l-82.317,5.242l0.524-54.527L771.733,610.031z"/>
<path fill="#2B6BA8" stroke="#2B6BA8" stroke-width="1.51" d="M771.733,610.031l-73.404,37.228l-8.913-31.983L771.733,610.031z"/>
<path fill="#77ACD4" stroke="#77ACD4" stroke-width="1.51" d="M768.586,179.568l-11.01,40.372l-48.763-50.858L768.586,179.568z"/>
<path fill="#327EBB" stroke="#327EBB" stroke-width="1.51" d="M744.993,496.256l-55.053,64.49l37.226-70.783L744.993,496.256z"/>
<path fill="#73ACD3" stroke="#73ACD3" stroke-width="1.51" d="M757.577,219.939l-34.605,15.205l-14.155-66.063L757.577,219.939z"/>
<path fill="#579FCD" stroke="#579FCD" stroke-width="1.51" d="M759.15,312.744l-65.54,12.583l12.583-31.983L759.15,312.744z"/>
<path fill="#86B4D9" stroke="#86B4D9" stroke-width="1.51" d="M753.906,120.844l-45.091,48.237l7.864-75.502L753.906,120.844z"/>
<path fill="#88B6DA" stroke="#88B6DA" stroke-width="1.51" d="M716.68,93.58l-7.864,75.502l-37.229-39.848L716.68,93.58z"/>
<path fill="#9FC2E2" stroke="#9FC2E2" stroke-width="1.51" d="M705.668,17.554L666.869,2.873l35.129-71.831L705.668,17.554z"/>
<path fill="#67A8D2" stroke="#67A8D2" stroke-width="1.51" d="M722.971,235.145l-16.777,58.199l-50.858-32.507L722.971,235.145z"/>
<path fill="#76AFD5" stroke="#76AFD5" stroke-width="1.51" d="M722.971,235.145l-66.589-1.048l52.434-65.015L722.971,235.145z"/>
<path fill="#3781BC" stroke="#3781BC" stroke-width="1.51" d="M727.166,489.963l-37.226,70.783l-21.497-71.309L727.166,489.963z"/>
<path fill="#3B87C1" stroke="#3B87C1" stroke-width="1.51" d="M727.166,489.963l-58.723-0.523l18.875-41.945L727.166,489.963z"/>
<path fill="#7A8BB6" stroke="#7A8BB6" stroke-width="1.51" d="M219.103,658.794l-101.717-1.573l39.848-1.572L219.103,658.794z"/>
<path fill="#A4C6E3" stroke="#A4C6E3" stroke-width="1.51" d="M701.999-68.958L666.87,2.873l-19.399-40.896L701.999-68.958z"/>
<path fill="#95BDDF" stroke="#95BDDF" stroke-width="1.51" d="M709.863,73.131l-43.519-4.195l39.323-51.383L709.863,73.131z"/>
<path fill="#70ACD4" stroke="#70ACD4" stroke-width="1.51" d="M722.971,235.145l-67.637,25.692l1.048-26.74L722.971,235.145z"/>
<path fill="#3A80BC" stroke="#3A80BC" stroke-width="1.51" d="M689.94,560.746l-41.946-25.691l20.449-45.615L689.94,560.746z"/>
<path fill="#A9CAE6" stroke="#A9CAE6" stroke-width="1.51" d="M701.999-68.958l-54.528,30.935l-60.297-19.924L701.999-68.958z"/>
<path fill="#7EB4D8" stroke="#7EB4D8" stroke-width="1.51" d="M708.815,169.082l-52.434,65.015l-4.193-70.783L708.815,169.082z"/>
<path fill="#91BADD" stroke="#91BADD" stroke-width="1.51" d="M716.68,93.58l-50.335-24.643l43.519,4.195L716.68,93.58z"/>
<path fill="#90BADD" stroke="#90BADD" stroke-width="1.51" d="M716.68,93.58l-45.093,35.654l-5.242-60.297L716.68,93.58z"/>
<path fill="#3475B3" stroke="#3475B3" stroke-width="1.51" d="M689.94,560.746l-0.524,54.527l-34.606-17.825L689.94,560.746z"/>
<path fill="#4A96C9" stroke="#4A96C9" stroke-width="1.51" d="M689.94,370.419l-2.622,77.074l-53.48-67.112L689.94,370.419z"/>
<path fill="#99C0E0" stroke="#99C0E0" stroke-width="1.51" d="M705.668,17.554l-39.323,51.383l0.524-66.064L705.668,17.554z"/>
<path fill="#85B6DA" stroke="#85B6DA" stroke-width="1.51" d="M708.815,169.082l-56.627-5.768l19.398-34.081L708.815,169.082z"/>
<path fill="#5AA1CF" stroke="#5AA1CF" stroke-width="1.51" d="M706.193,293.344l-12.583,31.983l-30.936-3.146L706.193,293.344z"/>
<path fill="#61A5D1" stroke="#61A5D1" stroke-width="1.51" d="M706.193,293.344l-43.519,28.84l-7.341-61.347L706.193,293.344z"/>
<path fill="#569ECD" stroke="#569ECD" stroke-width="1.51" d="M693.61,325.327l-3.67,45.092l-27.266-48.235L693.61,325.327z"/>
<path fill="#4993C7" stroke="#4993C7" stroke-width="1.51" d="M687.318,447.493l-46.665,8.39l-6.815-75.502L687.318,447.493z"/>
<path fill="#326CA8" stroke="#326CA8" stroke-width="1.51" d="M698.329,647.259l-39.324-3.671l30.411-28.313L698.329,647.259z"/>
<path fill="#D7E7F5" stroke="#D7E7F5" stroke-width="1.51" d="M386.884-45.889l-115.35-0.524L221.2-58.472L386.884-45.889z"/>
<path fill="#6081AF" stroke="#6081AF" stroke-width="1.51" d="M471.823,661.415l-146.808-11.011l65.54-3.672L471.823,661.415z"/>
<path fill="#428CC4" stroke="#428CC4" stroke-width="1.51" d="M687.318,447.493l-18.875,41.944l-27.79-33.556L687.318,447.493z"/>
<path fill="#397AB7" stroke="#397AB7" stroke-width="1.51" d="M689.94,560.746l-35.131,36.702l-6.815-62.394L689.94,560.746z"/>
<path fill="#549DCC" stroke="#549DCC" stroke-width="1.51" d="M689.94,370.419l-56.104,9.962l28.838-58.197L689.94,370.419z"/>
<path fill="#3571AD" stroke="#3571AD" stroke-width="1.51" d="M689.416,615.273l-30.411,28.313l-4.193-46.14L689.416,615.273z"/>
<path fill="#7FB6D8" stroke="#7FB6D8" stroke-width="1.51" d="M656.382,234.097l-55.053-19.924l50.857-50.859L656.382,234.097z"/>
<path fill="#9BC2E2" stroke="#9BC2E2" stroke-width="1.51" d="M666.87,2.873l-0.524,66.064l-51.384-7.865L666.87,2.873z"/>
<path fill="#8EBCDD" stroke="#8EBCDD" stroke-width="1.51" d="M671.587,129.233l-19.398,34.081l-68.686-41.945L671.587,129.233z"/>
<path fill="#95BEDF" stroke="#95BEDF" stroke-width="1.51" d="M671.587,129.233l-56.626-68.162l51.384,7.865L671.587,129.233z"/>
<path fill="#96C0E0" stroke="#96C0E0" stroke-width="1.51" d="M671.587,129.233l-88.084-7.865l31.458-60.297L671.587,129.233z"/>
<path fill="#8FBEDE" stroke="#8FBEDE" stroke-width="1.51" d="M652.188,163.314l-59.247-7.341l-9.438-34.604L652.188,163.314z"/>
<path fill="#69AAD4" stroke="#69AAD4" stroke-width="1.51" d="M662.675,322.184l-82.843-51.909l75.502-9.438L662.675,322.184z"/>
<path fill="#A4C8E5" stroke="#A4C8E5" stroke-width="1.51" d="M666.87,2.873l-61.346-22.545l41.945-18.351L666.87,2.873z"/>
<path fill="#A1C6E4" stroke="#A1C6E4" stroke-width="1.51" d="M666.87,2.873l-51.908,58.199l-9.438-80.745L666.87,2.873z"/>
<path fill="#4188C1" stroke="#4188C1" stroke-width="1.51" d="M668.443,489.438l-20.449,45.617l-47.713-52.433L668.443,489.438z"/>
<path fill="#448DC4" stroke="#448DC4" stroke-width="1.51" d="M668.443,489.438l-68.162-6.814l40.372-26.74L668.443,489.438z"/>
<path fill="#3E7EB9" stroke="#3E7EB9" stroke-width="1.51" d="M654.81,597.448l-64.49-39.323l57.675-23.07L654.81,597.448z"/>
<path fill="#5BA1CF" stroke="#5BA1CF" stroke-width="1.51" d="M662.675,322.184l-28.838,58.197l-49.811-29.886L662.675,322.184z"/>
<path fill="#5C7FAE" stroke="#5C7FAE" stroke-width="1.51" d="M471.823,661.415l-81.269-14.683l22.021,1.574L471.823,661.415z"/>
<path fill="#4D96C9" stroke="#4D96C9" stroke-width="1.51" d="M640.653,455.883l-39.849-7.341l33.032-68.161L640.653,455.883z"/>
<path fill="#3870AB" stroke="#3870AB" stroke-width="1.51" d="M659.004,643.588l-53.479,10.486l49.285-56.626L659.004,643.588z"/>
<path fill="#64A9D3" stroke="#64A9D3" stroke-width="1.51" d="M662.675,322.184l-78.647,28.313l-4.194-80.221L662.675,322.184z"/>
<path fill="#3D75AF" stroke="#3D75AF" stroke-width="1.51" d="M654.81,597.448l-49.285,56.626l-27.266-43.518L654.81,597.448z"/>
<path fill="#87BADB" stroke="#87BADB" stroke-width="1.51" d="M652.188,163.314l-50.858,50.859l-8.389-58.2L652.188,163.314z"/>
<path fill="#76B1D7" stroke="#76B1D7" stroke-width="1.51" d="M656.382,234.097l-1.048,26.74l-54.005-46.664L656.382,234.097z"/>
<path fill="#529ACB" stroke="#529ACB" stroke-width="1.51" d="M633.837,380.381l-33.032,68.161l-19.923-43.519L633.837,380.381z"/>
<path fill="#75B2D7" stroke="#75B2D7" stroke-width="1.51" d="M655.334,260.837l-75.502,9.438l21.497-56.102L655.334,260.837z"/>
<path fill="#407BB7" stroke="#407BB7" stroke-width="1.51" d="M654.81,597.448l-76.551,13.108l12.061-52.433L654.81,597.448z"/>
<path fill="#AACCE6" stroke="#AACCE6" stroke-width="1.51" d="M647.47-38.024l-41.945,18.351l-18.352-38.275L647.47-38.024z"/>
<path fill="#4386BF" stroke="#4386BF" stroke-width="1.51" d="M647.994,535.055l-57.675,23.07l9.962-75.502L647.994,535.055z"/>
<path fill="#4A91C6" stroke="#4A91C6" stroke-width="1.51" d="M640.653,455.883l-40.372,26.74l0.523-34.081L640.653,455.883z"/>
<path fill="#58A0CE" stroke="#58A0CE" stroke-width="1.51" d="M633.837,380.381l-52.955,24.643l3.146-54.527L633.837,380.381z"/>
<path fill="#69ACD5" stroke="#69ACD5" stroke-width="1.51" d="M584.027,350.495l-41.42-24.644l37.226-55.578L584.027,350.495z"/>
<path fill="#488AC3" stroke="#488AC3" stroke-width="1.51" d="M600.281,482.623l-9.962,75.502l-28.313-60.298L600.281,482.623z"/>
<path fill="#A5CAE6" stroke="#A5CAE6" stroke-width="1.51" d="M614.961,61.072l-76.025-49.286l66.589-31.459L614.961,61.072z"/>
<path fill="#A3C9E5" stroke="#A3C9E5" stroke-width="1.51" d="M614.961,61.072l-52.956,9.438l-23.07-58.724L614.961,61.072z"/>
<path fill="#9DC5E3" stroke="#9DC5E3" stroke-width="1.51" d="M614.961,61.072l-31.458,60.297L562.005,70.51L614.961,61.072z"/>
<path fill="#BDD9EC" stroke="#BDD9EC" stroke-width="1.51" d="M522.158-55.851l-24.644,8.389l-59.771,2.622L522.158-55.851z"/>
<path fill="#87BCDC" stroke="#87BCDC" stroke-width="1.51" d="M601.33,214.173l-58.723,4.718l50.334-62.917L601.33,214.173z"/>
<path fill="#7EB7DA" stroke="#7EB7DA" stroke-width="1.51" d="M601.33,214.173l-21.497,56.102l-37.226-51.384L601.33,214.173z"/>
<path fill="#ABCEE8" stroke="#ABCEE8" stroke-width="1.51" d="M605.524-19.673l-66.589,31.459l48.237-69.734L605.524-19.673z"/>
<path fill="#4275AC" stroke="#4275AC" stroke-width="1.51" d="M605.524,654.074l-76.551-2.098l49.286-41.42L605.524,654.074z"/>
<path fill="#5CA2CF" stroke="#5CA2CF" stroke-width="1.51" d="M584.027,350.495l-3.146,54.528l-34.605-15.205L584.027,350.495z"/>
<path fill="#4B8AC1" stroke="#4B8AC1" stroke-width="1.51" d="M590.319,558.125l-57.15-25.168l28.837-35.13L590.319,558.125z"/>
<path fill="#8FC0DE" stroke="#8FC0DE" stroke-width="1.51" d="M592.941,155.973l-50.334,62.917l-18.875-55.577L592.941,155.973z"/>
<path fill="#5399CA" stroke="#5399CA" stroke-width="1.51" d="M600.805,448.542l-73.403,7.865l53.48-51.384L600.805,448.542z"/>
<path fill="#4C91C6" stroke="#4C91C6" stroke-width="1.51" d="M600.805,448.542l-0.523,34.081l-38.275,15.204L600.805,448.542z"/>
<path fill="#5195C8" stroke="#5195C8" stroke-width="1.51" d="M600.805,448.542l-38.799,49.285l-34.604-41.42L600.805,448.542z"/>
<path fill="#4779B1" stroke="#4779B1" stroke-width="1.51" d="M578.259,610.557l-49.286,41.422l7.865-36.18L578.259,610.557z"/>
<path fill="#B2D2E9" stroke="#B2D2E9" stroke-width="1.51" d="M587.173-57.948l-48.237,69.734l-16.777-67.637L587.173-57.948z"/>
<path fill="#457DB8" stroke="#457DB8" stroke-width="1.51" d="M590.319,558.125l-12.061,52.432l-41.42,5.242L590.319,558.125z"/>
<path fill="#4A84BC" stroke="#4A84BC" stroke-width="1.51" d="M590.319,558.125l-53.48,57.674l-3.67-82.842L590.319,558.125z"/>
<path fill="#93C2E0" stroke="#93C2E0" stroke-width="1.51" d="M592.941,155.973l-69.21,7.341l59.771-41.945L592.941,155.973z"/>
<path fill="#7CB7DA" stroke="#7CB7DA" stroke-width="1.51" d="M579.833,270.274l-42.994-3.67l5.769-47.714L579.833,270.274z"/>
<path fill="#9AC4E2" stroke="#9AC4E2" stroke-width="1.51" d="M583.503,121.369l-59.771,41.945l12.583-48.761L583.503,121.369z"/>
<path fill="#9DC6E4" stroke="#9DC6E4" stroke-width="1.51" d="M583.503,121.369l-47.189-6.816l25.691-44.043L583.503,121.369z"/>
<path fill="#73B2D8" stroke="#73B2D8" stroke-width="1.51" d="M579.833,270.274l-37.226,55.578l-5.769-59.248L579.833,270.274z"/>
<path fill="#5A9ECD" stroke="#5A9ECD" stroke-width="1.51" d="M580.882,405.023l-53.48,51.384l18.875-66.589L580.882,405.023z"/>
<path fill="#63A7D2" stroke="#63A7D2" stroke-width="1.51" d="M584.027,350.495l-37.75,39.323l-3.67-63.967L584.027,350.495z"/>
<path fill="#69AAD3" stroke="#69AAD3" stroke-width="1.51" d="M546.276,389.818l-48.762-41.422l45.092-22.545L546.276,389.818z"/>
<path fill="#A5CAE5" stroke="#A5CAE5" stroke-width="1.51" d="M562.006,70.51l-25.69,44.043L485.979,70.51H562.006z"/>
<path fill="#AACEE7" stroke="#AACEE7" stroke-width="1.51" d="M562.006,70.51l-59.771-51.908l36.702-6.816L562.006,70.51z"/>
<path fill="#AACEE7" stroke="#AACEE7" stroke-width="1.51" d="M562.006,70.51h-76.026l16.255-51.908L562.006,70.51z"/>
<path fill="#5391C6" stroke="#5391C6" stroke-width="1.51" d="M562.006,497.827l-28.837,35.13l-29.362-52.956L562.006,497.827z"/>
<path fill="#5695C9" stroke="#5695C9" stroke-width="1.51" d="M562.006,497.827l-58.199-17.826l23.595-23.594L562.006,497.827z"/>
<path fill="#609FCD" stroke="#609FCD" stroke-width="1.51" d="M527.401,456.407l-20.448,4.718l-12.584-74.977L527.401,456.407z"/>
<path fill="#5689BF" stroke="#5689BF" stroke-width="1.51" d="M533.168,532.957l-47.188,78.646l-17.302-56.625L533.168,532.957z"/>
<path fill="#5083BB" stroke="#5083BB" stroke-width="1.51" d="M536.839,615.799l-50.859-4.193l47.188-78.647L536.839,615.799z"/>
<path fill="#B5D4EB" stroke="#B5D4EB" stroke-width="1.51" d="M538.936,11.786l-41.421-59.248l24.644-8.389L538.936,11.786z"/>
<path fill="#B3D3E9" stroke="#B3D3E9" stroke-width="1.51" d="M538.936,11.786l-36.701,6.816l-4.72-66.063L538.936,11.786z"/>
<path fill="#85BBDB" stroke="#85BBDB" stroke-width="1.51" d="M542.606,218.891l-5.769,47.714L494.369,232L542.606,218.891z"/>
<path fill="#8EC0DE" stroke="#8EC0DE" stroke-width="1.51" d="M542.606,218.891L494.369,232l29.362-68.686L542.606,218.891z"/>
<path fill="#78B4D9" stroke="#78B4D9" stroke-width="1.51" d="M542.606,325.852l-47.714-55.053l41.945-4.194L542.606,325.852z"/>
<path fill="#60A2CF" stroke="#60A2CF" stroke-width="1.51" d="M546.276,389.818l-18.875,66.589l-33.032-70.259L546.276,389.818z"/>
<path fill="#68A8D2" stroke="#68A8D2" stroke-width="1.51" d="M546.276,389.818l-51.908-3.67l3.146-37.752L546.276,389.818z"/>
<path fill="#73B2D7" stroke="#73B2D7" stroke-width="1.51" d="M542.606,325.852l-45.092,22.547l-2.622-77.6L542.606,325.852z"/>
<path fill="#9CC6E2" stroke="#9CC6E2" stroke-width="1.51" d="M536.314,114.553l-12.583,48.761l-37.228-5.768L536.314,114.553z"/>
<path fill="#4E7CB2" stroke="#4E7CB2" stroke-width="1.51" d="M536.839,615.799l-7.865,36.18l-42.994-40.375L536.839,615.799z"/>
<path fill="#83BADB" stroke="#83BADB" stroke-width="1.51" d="M536.839,266.604l-41.945,4.194L494.369,232L536.839,266.604z"/>
<path fill="#96C4E0" stroke="#96C4E0" stroke-width="1.51" d="M523.731,163.314L494.369,232l-7.865-74.454L523.731,163.314z"/>
<path fill="#5B99CA" stroke="#5B99CA" stroke-width="1.51" d="M527.401,456.407l-23.595,23.594l3.146-18.876L527.401,456.407z"/>
<path fill="#A2C9E3" stroke="#A2C9E3" stroke-width="1.51" d="M536.314,114.553l-49.812,42.994l-18.351-32.508L536.314,114.553z"/>
<path fill="#A7CBE5" stroke="#A7CBE5" stroke-width="1.51" d="M536.314,114.553l-68.162,10.486l17.827-54.529L536.314,114.553z"/>
<path fill="#5890C5" stroke="#5890C5" stroke-width="1.51" d="M533.168,532.957l-64.491,22.021L503.806,480L533.168,532.957z"/>
<path fill="#507BAE" stroke="#507BAE" stroke-width="1.51" d="M528.974,651.979l-57.149,9.438l14.157-49.811L528.974,651.979z"/>
<path fill="#5E94C7" stroke="#5E94C7" stroke-width="1.51" d="M503.807,480.001l-35.129,74.978l-24.643-41.42L503.807,480.001z"/>
<path fill="#6DA9D2" stroke="#6DA9D2" stroke-width="1.51" d="M494.369,386.148l-66.063,49.81l6.292-33.556L494.369,386.148z"/>
<path fill="#99C6E0" stroke="#99C6E0" stroke-width="1.51" d="M494.369,232l-56.626-47.713l48.761-26.741L494.369,232z"/>
<path fill="#7CB6D9" stroke="#7CB6D9" stroke-width="1.51" d="M497.515,348.396l-80.744-37.227l78.123-40.372L497.515,348.396z"/>
<path fill="#BDDAEC" stroke="#BDDAEC" stroke-width="1.51" d="M497.515-47.461l-47.188,63.442L437.743-44.84L497.515-47.461z"/>
<path fill="#B7D6EA" stroke="#B7D6EA" stroke-width="1.51" d="M502.234,18.602l-51.907-2.621l47.188-63.442L502.234,18.602z"/>
<path fill="#B3D3E9" stroke="#B3D3E9" stroke-width="1.51" d="M502.234,18.602L485.979,70.51l-35.652-54.529L502.234,18.602z"/>
<path fill="#629DCD" stroke="#629DCD" stroke-width="1.51" d="M506.953,461.125l-3.146,18.876l-75.501-44.043L506.953,461.125z"/>
<path fill="#66A3CF" stroke="#66A3CF" stroke-width="1.51" d="M506.953,461.125l-78.647-25.167l66.063-49.81L506.953,461.125z"/>
<path fill="#5A89BE" stroke="#5A89BE" stroke-width="1.51" d="M485.979,611.604l-37.227-42.47l19.924-14.155L485.979,611.604z"/>
<path fill="#649CCB" stroke="#649CCB" stroke-width="1.51" d="M503.807,480.001l-59.771,33.558l-15.729-77.601L503.807,480.001z"/>
<path fill="#B5D4E9" stroke="#B5D4E9" stroke-width="1.51" d="M485.979,70.51L432.5,51.635l17.827-35.653L485.979,70.51z"/>
<path fill="#5B88BD" stroke="#5B88BD" stroke-width="1.51" d="M485.979,611.604l-42.47-23.594l5.243-18.876L485.979,611.604z"/>
<path fill="#8ABEDD" stroke="#8ABEDD" stroke-width="1.51" d="M494.894,270.799l-72.88-11.011L494.369,232L494.894,270.799z"/>
<path fill="#87BDDC" stroke="#87BDDC" stroke-width="1.51" d="M494.894,270.799l-78.123,40.372l5.243-51.383L494.894,270.799z"/>
<path fill="#6EABD3" stroke="#6EABD3" stroke-width="1.51" d="M497.515,348.396l-3.146,37.752l-59.771,16.254L497.515,348.396z"/>
<path fill="#77B1D7" stroke="#77B1D7" stroke-width="1.51" d="M497.515,348.396l-62.918,54.006l-17.826-91.231L497.515,348.396z"/>
<path fill="#97C5E0" stroke="#97C5E0" stroke-width="1.51" d="M494.369,232l-79.696-1.573l23.07-46.14L494.369,232z"/>
<path fill="#92C2DE" stroke="#92C2DE" stroke-width="1.51" d="M494.369,232l-72.355,27.788l-7.341-29.361L494.369,232z"/>
<path fill="#AFD0E7" stroke="#AFD0E7" stroke-width="1.51" d="M468.153,125.039l-38.274,3.146l2.621-76.55L468.153,125.039z"/>
<path fill="#5B81B2" stroke="#5B81B2" stroke-width="1.51" d="M471.823,661.415l-59.248-13.108l30.935-60.296L471.823,661.415z"/>
<path fill="#AFD1E7" stroke="#AFD1E7" stroke-width="1.51" d="M485.979,70.51l-17.826,54.529L432.5,51.634L485.979,70.51z"/>
<path fill="#5881B5" stroke="#5881B5" stroke-width="1.51" d="M485.979,611.604l-14.156,49.812l-28.313-73.404L485.979,611.604z"/>
<path fill="#A2CAE3" stroke="#A2CAE3" stroke-width="1.51" d="M486.504,157.546l-48.761,26.741l30.41-59.249L486.504,157.546z"/>
<path fill="#D2E4F2" stroke="#D2E4F2" stroke-width="1.51" d="M386.884-45.889l-66.063,11.535l-49.286-12.06L386.884-45.889z"/>
<path fill="#A7CDE4" stroke="#A7CDE4" stroke-width="1.51" d="M468.153,125.039l-30.41,59.249l-7.864-56.103L468.153,125.039z"/>
<path fill="#6090C3" stroke="#6090C3" stroke-width="1.51" d="M468.678,554.979l-19.924,14.156l-4.719-55.576L468.678,554.979z"/>
<path fill="#B6D4E9" stroke="#B6D4E9" stroke-width="1.51" d="M432.5,51.634l-2.621,76.55l-33.032-56.102L432.5,51.634z"/>
<path fill="#7CB3D7" stroke="#7CB3D7" stroke-width="1.51" d="M434.597,402.402l-66.063-22.547l48.237-68.686L434.597,402.402z"/>
<path fill="#6187B9" stroke="#6187B9" stroke-width="1.51" d="M443.51,588.011l-30.935,60.296l-22.021-45.615L443.51,588.011z"/>
<path fill="#6CA1CE" stroke="#6CA1CE" stroke-width="1.51" d="M444.035,513.559l-49.286-63.968l33.557-13.633L444.035,513.559z"/>
<path fill="#6C9ECC" stroke="#6C9ECC" stroke-width="1.51" d="M444.035,513.559l-56.626-13.107l7.34-50.859L444.035,513.559z"/>
<path fill="#6593C4" stroke="#6593C4" stroke-width="1.51" d="M448.753,569.135l-63.967-18.351l59.248-37.228L448.753,569.135z"/>
<path fill="#BEDAEB" stroke="#BEDAEB" stroke-width="1.51" d="M450.327,15.981L432.5,51.634L358.571-4.468L450.327,15.981z"/>
<path fill="#C3DDED" stroke="#C3DDED" stroke-width="1.51" d="M450.327,15.981l-63.443-61.87l50.859,1.049L450.327,15.981z"/>
<path fill="#C4DDEE" stroke="#C4DDEE" stroke-width="1.51" d="M450.327,15.981L358.571-4.468l28.313-41.421L450.327,15.981z"/>
<path fill="#638FC1" stroke="#638FC1" stroke-width="1.51" d="M448.753,569.135l-5.243,18.876l-58.724-37.227L448.753,569.135z"/>
<path fill="#A8CEE4" stroke="#A8CEE4" stroke-width="1.51" d="M437.743,184.287l-73.929-2.098l66.064-54.005L437.743,184.287z"/>
<path fill="#658DC0" stroke="#658DC0" stroke-width="1.51" d="M443.51,588.011l-52.956,14.681l-5.768-51.906L443.51,588.011z"/>
<path fill="#6A98C8" stroke="#6A98C8" stroke-width="1.51" d="M444.035,513.559l-59.248,37.227l2.622-50.334L444.035,513.559z"/>
<path fill="#8CBFDD" stroke="#8CBFDD" stroke-width="1.51" d="M422.014,259.788l-5.243,51.383l-32.507-25.167L422.014,259.788z"/>
<path fill="#B6D4E9" stroke="#B6D4E9" stroke-width="1.51" d="M429.878,128.185l-57.151-31.459l24.119-24.643L429.878,128.185z"/>
<path fill="#BEDAEC" stroke="#BEDAEC" stroke-width="1.51" d="M432.5,51.634l-35.653,20.449L358.572-4.468L432.5,51.634z"/>
<path fill="#A0CBE1" stroke="#A0CBE1" stroke-width="1.51" d="M437.743,184.287l-23.07,46.14l-48.761-22.546L437.743,184.287z"/>
<path fill="#A6CDE3" stroke="#A6CDE3" stroke-width="1.51" d="M437.743,184.287l-71.831,23.594l-2.098-25.691L437.743,184.287z"/>
<path fill="#71A8D1" stroke="#71A8D1" stroke-width="1.51" d="M434.597,402.402l-6.292,33.556l-33.557,13.633L434.597,402.402z"/>
<path fill="#76ACD4" stroke="#76ACD4" stroke-width="1.51" d="M434.597,402.402l-39.849,47.188l-26.216-69.734L434.597,402.402z"/>
<path fill="#85B9DB" stroke="#85B9DB" stroke-width="1.51" d="M416.771,311.171l-48.237,68.687l-2.621-68.162L416.771,311.171z"/>
<path fill="#B1D2E7" stroke="#B1D2E7" stroke-width="1.51" d="M429.878,128.185l-66.064,54.005l8.914-85.464L429.878,128.185z"/>
<path fill="#6284B4" stroke="#6284B4" stroke-width="1.51" d="M412.576,648.307l-22.021-1.572v-44.043L412.576,648.307z"/>
<path fill="#93C3DF" stroke="#93C3DF" stroke-width="1.51" d="M422.014,259.788l-37.75,26.216l30.41-55.577L422.014,259.788z"/>
<path fill="#9AC6E1" stroke="#9AC6E1" stroke-width="1.51" d="M414.673,230.427l-30.41,55.577l-18.351-78.123L414.673,230.427z"/>
<path fill="#8ABDDD" stroke="#8ABDDD" stroke-width="1.51" d="M416.771,311.171l-50.858,0.524l18.351-25.691L416.771,311.171z"/>
<path fill="#B6D4E9" stroke="#B6D4E9" stroke-width="1.51" d="M372.728,96.726l-8.914,85.464l-36.702-66.588L372.728,96.726z"/>
<path fill="#98C5E1" stroke="#98C5E1" stroke-width="1.51" d="M384.263,286.004l-49.286,4.719l30.935-82.842L384.263,286.004z"/>
<path fill="#6F9ACA" stroke="#6F9ACA" stroke-width="1.51" d="M387.409,500.45l-2.622,50.334l-44.567-39.849L387.409,500.45z"/>
<path fill="#6688B9" stroke="#6688B9" stroke-width="1.51" d="M390.554,602.691v44.041l-49.81-34.604L390.554,602.691z"/>
<path fill="#6A8EC1" stroke="#6A8EC1" stroke-width="1.51" d="M390.554,602.691l-49.81,9.438l44.042-61.345L390.554,602.691z"/>
<path fill="#7BACD4" stroke="#7BACD4" stroke-width="1.51" d="M394.749,449.591h-89.658l63.442-69.733L394.749,449.591z"/>
<path fill="#71A0CE" stroke="#71A0CE" stroke-width="1.51" d="M394.749,449.591l-7.34,50.859l-47.189,10.485L394.749,449.591z"/>
<path fill="#77A5D1" stroke="#77A5D1" stroke-width="1.51" d="M394.749,449.591l-54.529,61.345l-35.129-61.345H394.749z"/>
<path fill="#BDD8EB" stroke="#BDD8EB" stroke-width="1.51" d="M396.846,72.083l-24.119,24.643l-57.675-20.973L396.846,72.083z"/>
<path fill="#C3DBED" stroke="#C3DBED" stroke-width="1.51" d="M396.846,72.083l-81.793,3.67l43.519-80.221L396.846,72.083z"/>
<path fill="#7187B5" stroke="#7187B5" stroke-width="1.51" d="M325.015,650.404l-105.912,8.39l65.54-17.303L325.015,650.404z"/>
<path fill="#6E92C4" stroke="#6E92C4" stroke-width="1.51" d="M384.787,550.784l-44.042,61.345l-28.313-54.004L384.787,550.784z"/>
<path fill="#6886B5" stroke="#6886B5" stroke-width="1.51" d="M390.554,646.732l-65.54,3.672l15.73-38.275L390.554,646.732z"/>
<path fill="#A1CAE3" stroke="#A1CAE3" stroke-width="1.51" d="M365.912,207.881l-30.935,82.842L313.479,212.6L365.912,207.881z"/>
<path fill="#88BADB" stroke="#88BADB" stroke-width="1.51" d="M368.533,379.855L317.15,338.96l48.762-27.265L368.533,379.855z"/>
<path fill="#CCE1F1" stroke="#CCE1F1" stroke-width="1.51" d="M386.884-45.889L358.571-4.468l-37.75-29.886L386.884-45.889z"/>
<path fill="#81B2D8" stroke="#81B2D8" stroke-width="1.51" d="M368.533,379.855l-63.442,69.734l16.254-75.502L368.533,379.855z"/>
<path fill="#7198C9" stroke="#7198C9" stroke-width="1.51" d="M384.787,550.784l-72.355,7.341l27.789-47.189L384.787,550.784z"/>
<path fill="#8FC0DF" stroke="#8FC0DF" stroke-width="1.51" d="M384.263,286.004l-18.351,25.691l-30.935-20.973L384.263,286.004z"/>
<path fill="#CADFF0" stroke="#CADFF0" stroke-width="1.51" d="M358.571-4.468l-43.519,80.221L301.945-4.468H358.571z"/>
<path fill="#B6D4E9" stroke="#B6D4E9" stroke-width="1.51" d="M363.814,182.189l-61.869-27.265l25.167-39.324L363.814,182.189z"/>
<path fill="#87B7DB" stroke="#87B7DB" stroke-width="1.51" d="M368.533,379.855l-47.188-5.768l-4.195-35.129L368.533,379.855z"/>
<path fill="#BFD8EC" stroke="#BFD8EC" stroke-width="1.51" d="M372.728,96.726l-45.616,18.875l-12.059-39.848L372.728,96.726z"/>
<path fill="#A9CEE5" stroke="#A9CEE5" stroke-width="1.51" d="M365.912,207.881L313.48,212.6l50.334-30.41L365.912,207.881z"/>
<path fill="#8FBFDE" stroke="#8FBFDE" stroke-width="1.51" d="M365.912,311.695L317.15,338.96l17.827-48.237L365.912,311.695z"/>
<path fill="#B0D1E6" stroke="#B0D1E6" stroke-width="1.51" d="M363.814,182.189l-50.334,30.41l-11.535-57.675L363.814,182.189z"/>
<path fill="#CEE2F1" stroke="#CEE2F1" stroke-width="1.51" d="M358.571-4.468h-56.626l18.875-29.886L358.571-4.468z"/>
<path fill="#A4CBE4" stroke="#A4CBE4" stroke-width="1.51" d="M334.977,290.723l-55.578-67.112L313.48,212.6L334.977,290.723z"/>
<path fill="#A1C8E3" stroke="#A1C8E3" stroke-width="1.51" d="M334.977,290.723l-77.075-5.244l21.497-61.868L334.977,290.723z"/>
<path fill="#7CA4D2" stroke="#7CA4D2" stroke-width="1.51" d="M340.22,510.936l-90.707-17.826l55.578-43.519L340.22,510.936z"/>
<path fill="#6D87B7" stroke="#6D87B7" stroke-width="1.51" d="M340.745,612.129l-15.73,38.275l-40.372-8.913L340.745,612.129z"/>
<path fill="#708EC0" stroke="#708EC0" stroke-width="1.51" d="M340.745,612.129l-56.102,29.362l27.789-83.366L340.745,612.129z"/>
<path fill="#799ECE" stroke="#799ECE" stroke-width="1.51" d="M340.22,510.936l-27.789,47.189l-62.918-65.016L340.22,510.936z"/>
<path fill="#748FC1" stroke="#748FC1" stroke-width="1.51" d="M312.431,558.125l-27.789,83.366l-31.459-26.74L312.431,558.125z"/>
<path fill="#86B4D9" stroke="#86B4D9" stroke-width="1.51" d="M321.345,374.089l-16.254,75.502l-42.994-73.403L321.345,374.089z"/>
<path fill="#94C1E0" stroke="#94C1E0" stroke-width="1.51" d="M334.977,290.723L317.15,338.96l-58.724-28.313L334.977,290.723z"/>
<path fill="#9BC4E2" stroke="#9BC4E2" stroke-width="1.51" d="M334.977,290.723l-76.551,19.924l-0.524-25.167L334.977,290.723z"/>
<path fill="#CCDFF1" stroke="#CCDFF1" stroke-width="1.51" d="M315.053,75.753l-67.637-5.768l54.529-74.453L315.053,75.753z"/>
<path fill="#C3D9EE" stroke="#C3D9EE" stroke-width="1.51" d="M327.112,115.601h-62.394l50.334-39.848L327.112,115.601z"/>
<path fill="#BFD8EC" stroke="#BFD8EC" stroke-width="1.51" d="M327.112,115.601l-25.167,39.324l-37.227-39.324H327.112z"/>
<path fill="#82AAD5" stroke="#82AAD5" stroke-width="1.51" d="M305.091,449.591l-55.578,43.519l7.865-35.129L305.091,449.591z"/>
<path fill="#7894C7" stroke="#7894C7" stroke-width="1.51" d="M312.431,558.125l-59.248,56.626l-4.194-48.762L312.431,558.125z"/>
<path fill="#7B9CCC" stroke="#7B9CCC" stroke-width="1.51" d="M312.431,558.125l-63.442,7.864l0.524-72.88L312.431,558.125z"/>
<path fill="#B0D2E7" stroke="#B0D2E7" stroke-width="1.51" d="M313.479,212.6l-34.081,11.011l22.546-68.686L313.479,212.6z"/>
<path fill="#8CBADC" stroke="#8CBADC" stroke-width="1.51" d="M321.345,374.089l-59.248,2.099l55.053-37.228L321.345,374.089z"/>
<path fill="#D4E5F3" stroke="#D4E5F3" stroke-width="1.51" d="M320.82-34.354L301.945-4.468l-30.411-41.945L320.82-34.354z"/>
<path fill="#D6E5F4" stroke="#D6E5F4" stroke-width="1.51" d="M301.945-4.468l-35.653-14.156l5.243-27.789L301.945-4.468z"/>
<path fill="#B7D4E9" stroke="#B7D4E9" stroke-width="1.51" d="M301.945,154.925l-22.546,68.686l-12.059-70.783L301.945,154.925z"/>
<path fill="#86B0D8" stroke="#86B0D8" stroke-width="1.51" d="M305.091,449.591l-47.713,8.39l4.719-81.793L305.091,449.591z"/>
<path fill="#93BEDF" stroke="#93BEDF" stroke-width="1.51" d="M317.15,338.96l-55.053,37.228l-3.67-65.541L317.15,338.96z"/>
<path fill="#D2E2F3" stroke="#D2E2F3" stroke-width="1.51" d="M301.945-4.468l-54.529,74.453l18.876-88.609L301.945-4.468z"/>
<path fill="#C8DCEF" stroke="#C8DCEF" stroke-width="1.51" d="M315.053,75.753l-50.334,39.848l-17.303-45.616L315.053,75.753z"/>
<path fill="#BFD8EC" stroke="#BFD8EC" stroke-width="1.51" d="M301.945,154.925l-34.605-2.098l-2.622-37.226L301.945,154.925z"/>
<path fill="#8BB5DA" stroke="#8BB5DA" stroke-width="1.51" d="M262.097,376.188l-4.719,81.793l-27.264-59.248L262.097,376.188z"/>
<path fill="#8AB2D9" stroke="#8AB2D9" stroke-width="1.51" d="M257.377,457.98l-36.702-28.313l9.438-30.935L257.377,457.98z"/>
<path fill="#D3E4F3" stroke="#D3E4F3" stroke-width="1.51" d="M266.292-18.624l-18.876,88.609l-39.324-53.48L266.292-18.624z"/>
<path fill="#BCD7EB" stroke="#BCD7EB" stroke-width="1.51" d="M267.34,152.827l-60.821,73.404l-4.719-67.637L267.34,152.827z"/>
<path fill="#A7CBE5" stroke="#A7CBE5" stroke-width="1.51" d="M279.399,223.61l-21.497,61.868l-42.47-12.583L279.399,223.61z"/>
<path fill="#B5D4E9" stroke="#B5D4E9" stroke-width="1.51" d="M279.399,223.61l-72.88,2.621l60.821-73.404L279.399,223.61z"/>
<path fill="#748BB9" stroke="#748BB9" stroke-width="1.51" d="M284.643,641.491l-65.54,17.303l34.081-44.043L284.643,641.491z"/>
<path fill="#97C0E0" stroke="#97C0E0" stroke-width="1.51" d="M262.097,376.188l-55.053-44.043l51.383-21.498L262.097,376.188z"/>
<path fill="#CADDF0" stroke="#CADDF0" stroke-width="1.51" d="M264.718,115.601l-33.032-18.875l15.729-26.74L264.718,115.601z"/>
<path fill="#ADCFE7" stroke="#ADCFE7" stroke-width="1.51" d="M279.399,223.61l-63.966,49.285l-8.914-46.664L279.399,223.61z"/>
<path fill="#7F9FCE" stroke="#7F9FCE" stroke-width="1.51" d="M249.513,493.109l-0.524,72.88L201.8,540.822L249.513,493.109z"/>
<path fill="#DAE8F6" stroke="#DAE8F6" stroke-width="1.51" d="M271.534-46.413l-5.243,27.789L221.2-58.472L271.534-46.413z"/>
<path fill="#82A4D1" stroke="#82A4D1" stroke-width="1.51" d="M249.513,493.109L201.8,540.822l11.01-42.995L249.513,493.109z"/>
<path fill="#C6DCEF" stroke="#C6DCEF" stroke-width="1.51" d="M264.718,115.601L201.8,158.595l29.886-61.869L264.718,115.601z"/>
<path fill="#C2D9ED" stroke="#C2D9ED" stroke-width="1.51" d="M267.34,152.827l-65.54,5.768l62.918-42.994L267.34,152.827z"/>
<path fill="#DAE8F6" stroke="#DAE8F6" stroke-width="1.51" d="M266.292-18.624l-58.2,35.129L221.2-58.472L266.292-18.624z"/>
<path fill="#D3E3F4" stroke="#D3E3F4" stroke-width="1.51" d="M247.416,69.985l-48.237-24.118l8.913-29.362L247.416,69.985z"/>
<path fill="#92BCDE" stroke="#92BCDE" stroke-width="1.51" d="M262.097,376.188l-31.983,22.545l-23.07-66.588L262.097,376.188z"/>
<path fill="#7A92C4" stroke="#7A92C4" stroke-width="1.51" d="M253.183,614.751l-54.004,3.146l49.81-51.906L253.183,614.751z"/>
<path fill="#83A8D4" stroke="#83A8D4" stroke-width="1.51" d="M257.377,457.98l-7.865,35.129l-36.702,4.718L257.377,457.98z"/>
<path fill="#A0C7E4" stroke="#A0C7E4" stroke-width="1.51" d="M258.426,310.646l-42.994-37.751l42.47,12.583L258.426,310.646z"/>
<path fill="#9EC6E4" stroke="#9EC6E4" stroke-width="1.51" d="M258.426,310.646l-51.383,21.496l8.389-59.248L258.426,310.646z"/>
<path fill="#87ACD6" stroke="#87ACD6" stroke-width="1.51" d="M257.377,457.98l-44.567,39.847l7.865-68.16L257.377,457.98z"/>
<path fill="#788EBC" stroke="#788EBC" stroke-width="1.51" d="M253.183,614.751l-34.081,44.043l-19.924-40.897L253.183,614.751z"/>
<path fill="#7D98C9" stroke="#7D98C9" stroke-width="1.51" d="M248.989,565.989l-49.81,51.907l2.622-77.074L248.989,565.989z"/>
<path fill="#CFE0F2" stroke="#CFE0F2" stroke-width="1.51" d="M247.416,69.985l-15.729,26.74l-32.508-50.858L247.416,69.985z"/>
<path fill="#A1C8E5" stroke="#A1C8E5" stroke-width="1.51" d="M215.433,272.896l-8.389,59.249l-36.703-38.274L215.433,272.896z"/>
<path fill="#8AAFD8" stroke="#8AAFD8" stroke-width="1.51" d="M220.675,429.667l-7.865,68.16l-55.053-60.296L220.675,429.667z"/>
<path fill="#DDE9F7" stroke="#DDE9F7" stroke-width="1.51" d="M221.2-58.472l-13.108,74.977l-59.771-31.458L221.2-58.472z"/>
<path fill="#95BEDF" stroke="#95BEDF" stroke-width="1.51" d="M230.113,398.732l-67.637-22.547l44.567-44.043L230.113,398.732z"/>
<path fill="#CADEF0" stroke="#CADEF0" stroke-width="1.51" d="M231.687,96.726L201.8,158.595l-39.324-59.248L231.687,96.726z"/>
<path fill="#CFE1F2" stroke="#CFE1F2" stroke-width="1.51" d="M231.687,96.726l-69.21,2.622l36.703-53.48L231.687,96.726z"/>
<path fill="#8FB9DC" stroke="#8FB9DC" stroke-width="1.51" d="M230.113,398.732l-9.438,30.935l-58.199-53.479L230.113,398.732z"/>
<path fill="#7F97C7" stroke="#7F97C7" stroke-width="1.51" d="M201.8,540.822l-2.622,77.074l-44.567-3.67L201.8,540.822z"/>
<path fill="#829CCB" stroke="#829CCB" stroke-width="1.51" d="M201.8,540.822l-47.188,73.404l-11.011-59.772L201.8,540.822z"/>
<path fill="#BAD7EA" stroke="#BAD7EA" stroke-width="1.51" d="M206.519,226.231l-54.529-3.146l49.811-64.491L206.519,226.231z"/>
<path fill="#90B7DC" stroke="#90B7DC" stroke-width="1.51" d="M220.675,429.667l-62.918,7.864l4.719-61.346L220.675,429.667z"/>
<path fill="#E1EDF8" stroke="#E1EDF8" stroke-width="1.51" d="M221.2-58.472l-72.88,43.519l-5.768-47.713L221.2-58.472z"/>
<path fill="#798CB9" stroke="#798CB9" stroke-width="1.51" d="M219.103,658.794l-61.869-3.146l41.945-37.752L219.103,658.794z"/>
<path fill="#AACDE6" stroke="#AACDE6" stroke-width="1.51" d="M215.433,272.896l-45.092,20.974l36.178-67.638L215.433,272.896z"/>
<path fill="#E9F2FB" stroke="#E9F2FB" stroke-width="1.51" d="M142.553-62.667l-31.983,8.914l-61.345-7.34L142.553-62.667z"/>
<path fill="#BFDAEC" stroke="#BFDAEC" stroke-width="1.51" d="M201.8,158.595l-49.811,64.491l-9.438-52.432L201.8,158.595z"/>
<path fill="#AFD1E8" stroke="#AFD1E8" stroke-width="1.51" d="M206.519,226.231l-36.178,67.638l-18.351-70.783L206.519,226.231z"/>
<path fill="#85A5D2" stroke="#85A5D2" stroke-width="1.51" d="M212.811,497.827l-11.01,42.995l-58.724-33.557L212.811,497.827z"/>
<path fill="#89ACD6" stroke="#89ACD6" stroke-width="1.51" d="M212.811,497.827l-69.734,9.438l14.681-69.734L212.811,497.827z"/>
<path fill="#D3E3F4" stroke="#D3E3F4" stroke-width="1.51" d="M199.179,45.867l-36.703,53.479l-6.292-48.237L199.179,45.867z"/>
<path fill="#8290B9" stroke="#8290B9" stroke-width="1.51" d="M117.385,657.221l-117.447,8.389l61.346-17.303L117.385,657.221z"/>
<path fill="#9CC3E2" stroke="#9CC3E2" stroke-width="1.51" d="M207.043,332.145l-44.567,44.043l-14.681-62.395L207.043,332.145z"/>
<path fill="#D6E5F4" stroke="#D6E5F4" stroke-width="1.51" d="M208.092,16.505l-8.913,29.362l-42.994,5.243L208.092,16.505z"/>
<path fill="#D9E7F5" stroke="#D9E7F5" stroke-width="1.51" d="M208.092,16.505L156.185,51.11l-7.864-66.063L208.092,16.505z"/>
<path fill="#A1C8E4" stroke="#A1C8E4" stroke-width="1.51" d="M207.043,332.145l-59.248-18.352l22.545-19.924L207.043,332.145z"/>
<path fill="#C8DDEF" stroke="#C8DDEF" stroke-width="1.51" d="M201.8,158.595l-59.248,12.061l19.923-71.308L201.8,158.595z"/>
<path fill="#7C90BE" stroke="#7C90BE" stroke-width="1.51" d="M199.179,617.896l-41.945,37.75l-2.622-41.42L199.179,617.896z"/>
<path fill="#85A2D0" stroke="#85A2D0" stroke-width="1.51" d="M201.8,540.822l-58.199,13.632l-0.524-47.188L201.8,540.822z"/>
<path fill="#DCEAF7" stroke="#DCEAF7" stroke-width="1.51" d="M156.185,51.11L111.618,4.446l36.703-19.399L156.185,51.11z"/>
<path fill="#8CAFD8" stroke="#8CAFD8" stroke-width="1.51" d="M157.757,437.531l-14.681,69.734L113.19,483.67L157.757,437.531z"/>
<path fill="#95BCDE" stroke="#95BCDE" stroke-width="1.51" d="M162.476,376.188l-4.719,61.345l-36.178-48.237L162.476,376.188z"/>
<path fill="#9CC2E2" stroke="#9CC2E2" stroke-width="1.51" d="M162.476,376.188l-40.896,13.106l26.216-75.501L162.476,376.188z"/>
<path fill="#CCDFF1" stroke="#CCDFF1" stroke-width="1.51" d="M162.476,99.347l-19.923,71.308l-26.741-45.091L162.476,99.347z"/>
<path fill="#AED0E8" stroke="#AED0E8" stroke-width="1.51" d="M170.341,293.869l-80.22-4.72l61.869-66.063L170.341,293.869z"/>
<path fill="#A7CCE7" stroke="#A7CCE7" stroke-width="1.51" d="M170.341,293.869l-22.545,19.924l-57.675-24.644L170.341,293.869z"/>
<path fill="#A0C6E3" stroke="#A0C6E3" stroke-width="1.51" d="M147.795,313.793l-26.216,75.501l-39.848-55.577L147.795,313.793z"/>
<path fill="#B6D5EA" stroke="#B6D5EA" stroke-width="1.51" d="M151.99,223.086l-61.869,66.063l25.167-81.269L151.99,223.086z"/>
<path fill="#BEDAEC" stroke="#BEDAEC" stroke-width="1.51" d="M151.99,223.086l-36.702-15.205l27.265-37.227L151.99,223.086z"/>
<path fill="#849ACA" stroke="#849ACA" stroke-width="1.51" d="M154.612,614.227l-63.442-26.74l52.432-33.031L154.612,614.227z"/>
<path fill="#D7E6F5" stroke="#D7E6F5" stroke-width="1.51" d="M156.185,51.11l-40.373,74.453L84.877,39.575L156.185,51.11z"/>
<path fill="#7D8FBB" stroke="#7D8FBB" stroke-width="1.51" d="M157.233,655.646l-39.848,1.573l37.227-42.993L157.233,655.646z"/>
<path fill="#94B9DC" stroke="#94B9DC" stroke-width="1.51" d="M157.757,437.531l-42.994-1.049l6.816-47.188L157.757,437.531z"/>
<path fill="#90B3DA" stroke="#90B3DA" stroke-width="1.51" d="M157.757,437.531l-44.567,46.14l1.573-47.188L157.757,437.531z"/>
<path fill="#D2E3F3" stroke="#D2E3F3" stroke-width="1.51" d="M162.476,99.347l-46.664,26.216l40.373-74.453L162.476,99.347z"/>
<path fill="#CADFF0" stroke="#CADFF0" stroke-width="1.51" d="M142.553,170.654l-36.702-19.924l9.961-25.167L142.553,170.654z"/>
<path fill="#E4EFF9" stroke="#E4EFF9" stroke-width="1.51" d="M148.32-14.954l-37.751-38.8l31.983-8.914L148.32-14.954z"/>
<path fill="#DCE9F7" stroke="#DCE9F7" stroke-width="1.51" d="M156.185,51.11L84.878,39.575l26.74-35.129L156.185,51.11z"/>
<path fill="#89A5D1" stroke="#89A5D1" stroke-width="1.51" d="M143.601,554.454L95.364,534.53l47.713-27.265L143.601,554.454z"/>
<path fill="#8194C2" stroke="#8194C2" stroke-width="1.51" d="M154.612,614.227l-37.227,42.994l-26.216-69.734L154.612,614.227z"/>
<path fill="#E2EDF9" stroke="#E2EDF9" stroke-width="1.51" d="M148.32-14.954L111.617,4.445l-1.048-58.199L148.32-14.954z"/>
<path fill="#A7CBE6" stroke="#A7CBE6" stroke-width="1.51" d="M147.795,313.793l-66.063,19.924l8.389-44.567L147.795,313.793z"/>
<path fill="#C4DCEE" stroke="#C4DCEE" stroke-width="1.51" d="M142.553,170.654l-27.265,37.227l-9.438-57.15L142.553,170.654z"/>
<path fill="#88A1CE" stroke="#88A1CE" stroke-width="1.51" d="M143.601,554.454l-52.432,33.032l4.194-52.956L143.601,554.454z"/>
<path fill="#8BA9D5" stroke="#8BA9D5" stroke-width="1.51" d="M143.077,507.266l-47.713,27.266l17.827-50.859L143.077,507.266z"/>
<path fill="#E4EFF9" stroke="#E4EFF9" stroke-width="1.51" d="M111.618,4.446L53.419-2.37l57.151-51.383L111.618,4.446z"/>
<path fill="#93B4DA" stroke="#93B4DA" stroke-width="1.51" d="M114.764,436.482l-1.573,47.188l-62.919-29.36L114.764,436.482z"/>
<path fill="#BBD8EB" stroke="#BBD8EB" stroke-width="1.51" d="M115.288,207.881L90.121,289.15l-40.896-86.512L115.288,207.881z"/>
<path fill="#C7DEEE" stroke="#C7DEEE" stroke-width="1.51" d="M115.288,207.881l-68.686-36.702l59.248-20.448L115.288,207.881z"/>
<path fill="#C5DEEE" stroke="#C5DEEE" stroke-width="1.51" d="M115.288,207.881l-66.064-5.243l-2.622-31.459L115.288,207.881z"/>
<path fill="#D8E7F5" stroke="#D8E7F5" stroke-width="1.51" d="M115.812,125.563L30.873,94.628l54.004-55.053L115.812,125.563z"/>
<path fill="#8393BF" stroke="#8393BF" stroke-width="1.51" d="M117.385,657.221l-56.102-8.914l29.886-60.82L117.385,657.221z"/>
<path fill="#98BDDF" stroke="#98BDDF" stroke-width="1.51" d="M121.58,389.294l-6.816,47.188l-64.491-49.285L121.58,389.294z"/>
<path fill="#9FC3E2" stroke="#9FC3E2" stroke-width="1.51" d="M121.58,389.294l-71.307-2.097l31.459-53.48L121.58,389.294z"/>
<path fill="#98BBDD" stroke="#98BBDD" stroke-width="1.51" d="M114.764,436.482l-64.492,17.828v-67.112L114.764,436.482z"/>
<path fill="#E9F2FA" stroke="#E9F2FA" stroke-width="1.51" d="M110.569-53.753L53.418-2.37l-4.194-58.724L110.569-53.753z"/>
<path fill="#8EABD6" stroke="#8EABD6" stroke-width="1.51" d="M113.19,483.671L95.363,534.53L36.64,509.889L113.19,483.671z"/>
<path fill="#D2E3F3" stroke="#D2E3F3" stroke-width="1.51" d="M115.812,125.563l-9.961,25.167L30.873,94.628L115.812,125.563z"/>
<path fill="#B7D5EB" stroke="#B7D5EB" stroke-width="1.51" d="M90.121,289.149l-44.567,1.049l3.67-87.562L90.121,289.149z"/>
<path fill="#DDEAF7" stroke="#DDEAF7" stroke-width="1.51" d="M84.877,39.575L30.873,94.628l1.048-31.983L84.877,39.575z"/>
<path fill="#92B0D9" stroke="#92B0D9" stroke-width="1.51" d="M113.19,483.671l-76.55,26.218l13.632-55.578L113.19,483.671z"/>
<path fill="#D1E3F2" stroke="#D1E3F2" stroke-width="1.51" d="M105.851,150.73l-59.248,20.448l-15.729-76.55L105.851,150.73z"/>
<path fill="#E1ECF8" stroke="#E1ECF8" stroke-width="1.51" d="M111.618,4.446l-26.74,35.129L53.418-2.37L111.618,4.446z"/>
<path fill="#A4C8E4" stroke="#A4C8E4" stroke-width="1.51" d="M81.732,333.717l-31.459,53.48l-4.719-51.383L81.732,333.717z"/>
<path fill="#ABCFE8" stroke="#ABCFE8" stroke-width="1.51" d="M90.121,289.149l-8.389,44.567l-36.178-43.519L90.121,289.149z"/>
<path fill="#8798C4" stroke="#8798C4" stroke-width="1.51" d="M91.169,587.486l-29.886,60.82L29.3,615.273L91.169,587.486z"/>
<path fill="#8BA3CF" stroke="#8BA3CF" stroke-width="1.51" d="M95.364,534.53l-4.194,52.956l-52.956-50.334L95.364,534.53z"/>
<path fill="#8FA8D4" stroke="#8FA8D4" stroke-width="1.51" d="M95.364,534.53l-57.15,2.622l-1.573-27.266L95.364,534.53z"/>
<path fill="#8B9FCC" stroke="#8B9FCC" stroke-width="1.51" d="M91.169,587.486L29.3,615.273l8.913-78.121L91.169,587.486z"/>
<path fill="#AACCE7" stroke="#AACCE7" stroke-width="1.51" d="M81.732,333.717l-36.178,2.098v-45.615L81.732,333.717z"/>
<path fill="#BAD8EB" stroke="#BAD8EB" stroke-width="1.51" d="M49.224,202.638l-3.67,87.562L9.376,275.518L49.224,202.638z"/>
<path fill="#E1ECF7" stroke="#E1ECF7" stroke-width="1.51" d="M84.877,39.575l-52.956,23.07L53.418-2.37L84.877,39.575z"/>
<path fill="#D3E4F3" stroke="#D3E4F3" stroke-width="1.51" d="M46.603,171.179l-47.188-6.292l31.459-70.258L46.603,171.179z"/>
<path fill="#C2DCED" stroke="#C2DCED" stroke-width="1.51" d="M49.224,202.638l-39.848,72.88l-23.07-62.918L49.224,202.638z"/>
<path fill="#9EBFE0" stroke="#9EBFE0" stroke-width="1.51" d="M50.272,454.311l-70.258-57.15l70.258-9.962V454.311z"/>
<path fill="#EBF3FB" stroke="#EBF3FB" stroke-width="1.51" d="M53.418-2.37l-69.21-39.849l65.016-18.875L53.418-2.37z"/>
<path fill="#8694BE" stroke="#8694BE" stroke-width="1.51" d="M61.284,648.307l-61.346,17.303L29.3,615.273L61.284,648.307z"/>
<path fill="#8FA3CF" stroke="#8FA3CF" stroke-width="1.51" d="M38.213,537.152L29.3,615.273l-56.102-65.014L38.213,537.152z"/>
<path fill="#A3C6E3" stroke="#A3C6E3" stroke-width="1.51" d="M50.272,387.197l-70.258,9.962l65.54-61.345L50.272,387.197z"/>
<path fill="#96B3DA" stroke="#96B3DA" stroke-width="1.51" d="M50.272,454.311L36.64,509.889L-6.878,482.1L50.272,454.311z"/>
<path fill="#9DBCDE" stroke="#9DBCDE" stroke-width="1.51" d="M50.272,454.311l-62.918,6.814l-7.34-63.966L50.272,454.311z"/>
<path fill="#E5EFF9" stroke="#E5EFF9" stroke-width="1.51" d="M53.418-2.37L31.921,62.645l-56.102-42.47L53.418-2.37z"/>
<path fill="#EAF3FB" stroke="#EAF3FB" stroke-width="1.51" d="M53.418-2.37l-77.599,22.545l8.389-62.394L53.418-2.37z"/>
<path fill="#B2D2EA" stroke="#B2D2EA" stroke-width="1.51" d="M45.554,290.198l-64.491,34.081l28.313-48.762L45.554,290.198z"/>
<path fill="#ADCFE8" stroke="#ADCFE8" stroke-width="1.51" d="M45.554,335.814l-64.491-11.535l64.491-34.081V335.814z"/>
<path fill="#A9CBE6" stroke="#A9CBE6" stroke-width="1.51" d="M45.554,335.814l-65.54,61.345l1.049-72.88L45.554,335.814z"/>
<path fill="#CBE1F0" stroke="#CBE1F0" stroke-width="1.51" d="M49.224,202.638l-49.81-37.751l47.188,6.292L49.224,202.638z"/>
<path fill="#99B6DC" stroke="#99B6DC" stroke-width="1.51" d="M50.272,454.311L-6.878,482.1l-5.768-20.975L50.272,454.311z"/>
<path fill="#D8E7F5" stroke="#D8E7F5" stroke-width="1.51" d="M30.873,94.628l-31.459,70.258l-27.789-38.273L30.873,94.628z"/>
<path fill="#CAE1EF" stroke="#CAE1EF" stroke-width="1.51" d="M49.224,202.638l-62.918,9.962l13.108-47.713L49.224,202.638z"/>
<path fill="#8F9FCB" stroke="#8F9FCB" stroke-width="1.51" d="M29.3,615.273l-44.043,5.244l-12.059-70.258L29.3,615.273z"/>
<path fill="#8A97C1" stroke="#8A97C1" stroke-width="1.51" d="M29.3,615.273l-29.362,50.336l-14.681-45.09L29.3,615.273z"/>
<path fill="#DFEBF7" stroke="#DFEBF7" stroke-width="1.51" d="M31.921,62.645l-1.048,31.983L-2.683,70.51L31.921,62.645z"/>
<path fill="#E3EEF9" stroke="#E3EEF9" stroke-width="1.51" d="M31.921,62.645L-2.683,70.51l-21.498-50.335L31.921,62.645z"/>
<path fill="#92AAD4" stroke="#92AAD4" stroke-width="1.51" d="M38.213,537.152l-65.015,13.107l63.442-40.371L38.213,537.152z"/>
<path fill="#95AED7" stroke="#95AED7" stroke-width="1.51" d="M36.64,509.889l-63.442,40.371l19.924-68.16L36.64,509.889z"/>
<path fill="#DDEAF7" stroke="#DDEAF7" stroke-width="1.51" d="M30.873,94.628l-59.248,31.984L-2.683,70.51L30.873,94.628z"/>
<path fill="#BAD7EC" stroke="#BAD7EC" stroke-width="1.51" d="M9.376,275.518l-28.313,48.762l5.243-111.68L9.376,275.518z"/>
<path fill="#D1E5F2" stroke="#D1E5F2" stroke-width="1.51" d="M-0.586,164.887L-13.694,212.6l-14.681-85.988L-0.586,164.887z"/>
<path fill="#E2EDF8" stroke="#E2EDF8" stroke-width="1.51" d="M-2.683,70.51l-25.692,56.103l4.194-106.438L-2.683,70.51z"/>
<path fill="#98B2DA" stroke="#98B2DA" stroke-width="1.51" d="M-6.878,482.1l-19.924,68.16l14.156-89.135L-6.878,482.1z"/>
<path fill="#C6DFEE" stroke="#C6DFEE" stroke-width="1.51" d="M-13.694,212.6l-5.243,111.68l-9.438-197.668L-13.694,212.6z"/>
<path fill="#9BB7DC" stroke="#9BB7DC" stroke-width="1.51" d="M-12.646,461.125l-14.156,89.135l6.816-153.101L-12.646,461.125z"/>
<path fill="#B9D6EB" stroke="#B9D6EB" stroke-width="1.51" d="M-18.937,324.279l-1.049,72.88l-8.389-270.547L-18.937,324.279z"/>
<path fill="#AACBE6" stroke="#AACBE6" stroke-width="1.51" d="M-19.986,397.159l-6.816,153.101l-1.573-423.647L-19.986,397.159z"/>
</svg>
